<?xml version="1.0" encoding="UTF-8"?>
<svg xmlns="http://www.w3.org/2000/svg" xmlns:xlink="http://www.w3.org/1999/xlink" width="150px" height="34px" viewBox="0 0 148 34" version="1.1">
<g id="surface1">
<path style=" stroke:none;fill-rule:nonzero;fill:rgb(0%,0%,0%);fill-opacity:1;" d="M 94.753906 18.988281 C 95.039062 20.75 95.84375 21.785156 97.164062 21.902344 C 97.277344 21.902344 97.625 21.902344 97.625 21.902344 L 98.140625 21.902344 L 97.625 21.988281 C 97.625 21.988281 97.25 22.046875 97.164062 22.046875 C 95.269531 22.160156 94.238281 20.75 94.007812 19.078125 L 93.375 14.492188 L 91.25 19.335938 C 91.25 19.335938 90.964844 19.96875 90.90625 20.375 L 90.820312 20.375 L 88.179688 14.578125 L 87.722656 19.683594 C 87.691406 19.941406 87.921875 20.113281 88.121094 20.113281 L 88.292969 20.113281 L 88.292969 20.230469 L 86.3125 20.230469 L 86.3125 20.113281 L 86.488281 20.113281 C 86.832031 20.113281 87.175781 19.882812 87.234375 19.480469 L 87.894531 13.886719 C 87.492188 13.105469 86.859375 12.039062 85.769531 12.097656 C 85.625 12.097656 85.222656 12.15625 85.222656 12.15625 L 84.648438 12.269531 L 85.195312 12.097656 C 85.195312 12.097656 85.566406 11.984375 85.710938 11.953125 C 87.289062 11.695312 88.207031 13.019531 88.523438 13.683594 L 90.992188 19.046875 L 93.75 12.847656 L 93.835938 12.847656 Z M 94.753906 18.988281 "/>
<path style=" stroke:none;fill-rule:nonzero;fill:rgb(0%,0%,0%);fill-opacity:1;" d="M 99.949219 18.238281 L 98.945312 15.5 L 97.882812 18.238281 Z M 101.269531 19.941406 C 101.441406 20.316406 101.757812 20.488281 102.015625 20.488281 L 102.617188 20.488281 L 102.617188 20.574219 L 100.179688 20.574219 L 100.179688 20.488281 L 100.265625 20.488281 C 100.496094 20.488281 100.722656 20.289062 100.582031 19.96875 L 100.035156 18.527344 L 97.765625 18.527344 L 97.191406 19.96875 C 97.078125 20.316406 97.308594 20.488281 97.507812 20.488281 L 97.59375 20.488281 L 97.59375 20.574219 L 95.902344 20.574219 L 95.902344 20.488281 L 95.988281 20.488281 C 96.246094 20.488281 96.5625 20.34375 96.734375 19.941406 L 98.65625 15.355469 C 98.65625 15.355469 98.972656 14.664062 98.972656 14.492188 L 99.058594 14.492188 Z M 101.269531 19.941406 "/>
<path style=" stroke:none;fill-rule:nonzero;fill:rgb(0%,0%,0%);fill-opacity:1;" d="M 104.769531 14.605469 C 105.804688 14.605469 106.4375 15.210938 106.4375 16.191406 C 106.4375 17 105.804688 17.808594 105 17.808594 C 105.171875 17.894531 105.429688 18.183594 105.605469 18.414062 C 105.605469 18.414062 106.320312 19.449219 106.664062 19.824219 C 107.011719 20.199219 107.324219 20.460938 107.8125 20.460938 L 107.8125 20.546875 L 107.355469 20.546875 C 106.578125 20.546875 106.148438 20.113281 105.890625 19.796875 C 105.804688 19.683594 104.828125 18.296875 104.769531 18.210938 C 104.542969 17.921875 104.3125 17.632812 103.996094 17.632812 L 103.996094 17.546875 C 103.996094 17.546875 104.195312 17.546875 104.457031 17.546875 C 104.886719 17.546875 105.546875 17.433594 105.777344 16.652344 C 105.804688 16.539062 105.832031 16.335938 105.832031 16.136719 C 105.804688 15.355469 105.402344 14.867188 104.769531 14.835938 C 104.339844 14.808594 103.824219 14.835938 103.710938 14.835938 L 103.710938 19.941406 C 103.710938 20.230469 103.96875 20.488281 104.253906 20.488281 L 104.371094 20.488281 L 104.371094 20.574219 L 102.53125 20.574219 L 102.53125 20.488281 L 102.648438 20.488281 C 102.933594 20.488281 103.191406 20.257812 103.191406 19.96875 L 103.191406 15.242188 C 103.191406 14.953125 102.933594 14.691406 102.648438 14.691406 L 102.53125 14.691406 L 102.53125 14.605469 Z M 104.769531 14.605469 "/>
<path style=" stroke:none;fill-rule:nonzero;fill:rgb(0%,0%,0%);fill-opacity:1;" d="M 109.824219 20.546875 L 107.757812 20.546875 L 107.757812 20.460938 L 108.070312 20.460938 C 108.359375 20.460938 108.617188 20.230469 108.617188 19.914062 L 108.617188 15.210938 C 108.617188 14.921875 108.359375 14.691406 108.070312 14.691406 L 107.957031 14.691406 L 107.957031 14.605469 L 109.792969 14.605469 L 109.792969 14.691406 L 109.679688 14.691406 C 109.390625 14.691406 109.132812 14.921875 109.132812 15.210938 L 109.132812 19.941406 C 109.132812 20.230469 109.390625 20.488281 109.679688 20.488281 L 109.792969 20.488281 Z M 109.824219 20.546875 "/>
<path style=" stroke:none;fill-rule:nonzero;fill:rgb(0%,0%,0%);fill-opacity:1;" d="M 117.054688 14.605469 L 117.054688 14.691406 L 116.914062 14.691406 C 116.625 14.691406 116.394531 14.921875 116.394531 15.210938 L 116.394531 19.59375 C 116.394531 20.144531 116.484375 20.691406 116.484375 20.691406 L 116.394531 20.691406 L 111.773438 15.761719 L 111.773438 20 C 111.773438 20.289062 112.003906 20.519531 112.292969 20.519531 L 112.433594 20.519531 L 112.433594 20.605469 L 110.683594 20.605469 L 110.683594 20.519531 L 110.828125 20.519531 C 111.113281 20.519531 111.34375 20.289062 111.34375 20 L 111.34375 15.558594 C 111.34375 14.980469 111.257812 14.492188 111.257812 14.492188 L 111.34375 14.492188 L 115.9375 19.421875 L 115.9375 15.210938 C 115.9375 14.921875 115.707031 14.691406 115.421875 14.691406 L 115.277344 14.691406 L 115.277344 14.605469 Z M 117.054688 14.605469 "/>
<path style=" stroke:none;fill-rule:nonzero;fill:rgb(0%,0%,0%);fill-opacity:1;" d="M 121.277344 18.238281 L 120.242188 15.5 L 119.179688 18.238281 Z M 122.597656 19.941406 C 122.769531 20.316406 123.085938 20.488281 123.34375 20.488281 L 123.398438 20.488281 L 123.398438 20.574219 L 121.503906 20.574219 L 121.503906 20.488281 L 121.59375 20.488281 C 121.820312 20.488281 122.023438 20.289062 121.90625 19.96875 L 121.363281 18.527344 L 119.09375 18.527344 L 118.519531 19.96875 C 118.40625 20.316406 118.636719 20.488281 118.835938 20.488281 L 118.921875 20.488281 L 118.921875 20.574219 L 117.230469 20.574219 L 117.230469 20.488281 L 117.316406 20.488281 C 117.574219 20.488281 117.890625 20.34375 118.0625 19.941406 L 119.984375 15.355469 C 119.984375 15.355469 120.300781 14.664062 120.300781 14.492188 L 120.386719 14.492188 Z M 122.597656 19.941406 "/>
<path style=" stroke:none;fill-rule:nonzero;fill:rgb(0%,0%,0%);fill-opacity:1;" d="M 128.164062 15.703125 C 127.992188 14.75 128.539062 13.164062 130.691406 13.164062 C 132.816406 13.164062 134.25 14.78125 134.25 16.796875 C 134.25 19.105469 132.5 20.664062 130.117188 20.664062 C 127.761719 20.664062 125.953125 19.105469 125.953125 16.796875 C 125.953125 15.328125 126.671875 14.144531 127.9375 13.511719 L 127.992188 13.597656 C 127.015625 14.230469 126.730469 15.585938 126.730469 16.652344 C 126.730469 19.046875 128.195312 20.34375 130.089844 20.34375 C 132.070312 20.34375 133.445312 18.933594 133.445312 16.769531 C 133.445312 15.039062 132.5 13.453125 130.605469 13.453125 C 128.910156 13.453125 128.109375 14.722656 128.25 15.671875 Z M 128.164062 15.703125 "/>
<path style=" stroke:none;fill-rule:nonzero;fill:rgb(0%,0%,0%);fill-opacity:1;" d="M 141.28125 14.605469 L 141.28125 14.691406 L 141.140625 14.691406 C 140.851562 14.691406 140.621094 14.921875 140.621094 15.210938 L 140.621094 19.59375 C 140.621094 20.144531 140.710938 20.691406 140.710938 20.691406 L 140.621094 20.691406 L 136 15.761719 L 136 20 C 136 20.289062 136.230469 20.519531 136.519531 20.519531 L 136.660156 20.519531 L 136.660156 20.605469 L 134.910156 20.605469 L 134.910156 20.519531 L 135.054688 20.519531 C 135.339844 20.519531 135.570312 20.289062 135.570312 20 L 135.570312 15.558594 C 135.570312 14.980469 135.484375 14.492188 135.484375 14.492188 L 135.570312 14.492188 L 140.164062 19.421875 L 140.164062 15.210938 C 140.164062 14.921875 139.933594 14.691406 139.648438 14.691406 L 139.503906 14.691406 L 139.503906 14.605469 Z M 141.28125 14.605469 "/>
<path style=" stroke:none;fill-rule:nonzero;fill:rgb(0%,0%,0%);fill-opacity:1;" d="M 146.078125 19.191406 L 145.589844 20.574219 L 142.085938 20.574219 L 142.085938 20.488281 L 142.203125 20.488281 C 142.488281 20.488281 142.746094 20.257812 142.746094 19.941406 L 142.746094 15.183594 C 142.746094 14.921875 142.488281 14.691406 142.203125 14.691406 L 142.085938 14.691406 L 142.085938 14.605469 L 144.554688 14.605469 C 144.929688 14.605469 145.417969 14.519531 145.558594 14.460938 L 145.558594 15.558594 L 145.472656 15.558594 L 145.472656 15.414062 C 145.472656 15.15625 145.273438 14.921875 145.015625 14.894531 L 143.292969 14.894531 L 143.292969 17.519531 L 144.726562 17.519531 C 144.957031 17.519531 145.128906 17.316406 145.128906 17.117188 L 145.128906 17 L 145.214844 17 L 145.214844 18.355469 L 145.128906 18.355469 L 145.128906 18.238281 C 145.128906 18.007812 144.957031 17.835938 144.726562 17.835938 L 143.292969 17.835938 L 143.292969 20.375 L 144.5 20.375 C 145.386719 20.375 145.730469 19.914062 145.992188 19.25 L 146.078125 19.25 Z M 146.078125 19.191406 "/>
<path style=" stroke:none;fill-rule:nonzero;fill:rgb(0%,27.843137%,50.980392%);fill-opacity:1;" d="M 4.074219 16.566406 L 4.074219 14.835938 L 4.5625 14.835938 C 4.648438 14.835938 4.765625 14.835938 4.878906 14.867188 C 4.996094 14.894531 5.082031 14.921875 5.195312 14.980469 C 5.28125 15.039062 5.367188 15.125 5.425781 15.242188 C 5.484375 15.355469 5.511719 15.5 5.511719 15.671875 C 5.511719 15.902344 5.484375 16.078125 5.425781 16.191406 C 5.367188 16.335938 5.28125 16.421875 5.167969 16.480469 C 5.050781 16.539062 4.9375 16.566406 4.792969 16.566406 Z M 4.074219 20.777344 L 4.074219 18.382812 L 4.964844 18.382812 C 5.484375 18.382812 5.882812 18.269531 6.230469 18.039062 C 6.542969 17.808594 6.804688 17.519531 6.945312 17.085938 C 7.089844 16.683594 7.175781 16.191406 7.175781 15.644531 C 7.175781 15.125 7.089844 14.664062 6.917969 14.261719 C 6.746094 13.886719 6.488281 13.570312 6.171875 13.367188 C 5.828125 13.164062 5.425781 13.050781 4.910156 13.050781 L 2.324219 13.050781 L 2.324219 20.777344 Z M 7.75 17.402344 C 7.75 18.066406 7.808594 18.613281 7.921875 19.078125 C 8.039062 19.539062 8.210938 19.914062 8.410156 20.171875 C 8.640625 20.460938 8.898438 20.664062 9.214844 20.777344 C 9.53125 20.894531 9.902344 20.949219 10.304688 20.949219 C 10.878906 20.949219 11.367188 20.835938 11.738281 20.574219 C 12.113281 20.316406 12.398438 19.941406 12.574219 19.421875 C 12.746094 18.902344 12.832031 18.210938 12.832031 17.402344 L 12.832031 13.050781 L 11.078125 13.050781 L 11.078125 17.664062 C 11.078125 17.953125 11.050781 18.183594 11.023438 18.414062 C 10.964844 18.613281 10.878906 18.789062 10.765625 18.902344 C 10.648438 19.019531 10.476562 19.078125 10.277344 19.078125 C 10.105469 19.078125 9.960938 19.046875 9.84375 18.960938 C 9.730469 18.875 9.644531 18.789062 9.585938 18.644531 C 9.53125 18.5 9.5 18.355469 9.472656 18.183594 C 9.445312 18.007812 9.445312 17.835938 9.445312 17.632812 L 9.445312 13.019531 L 7.75 13.019531 Z M 15.585938 14.835938 L 16.390625 14.835938 C 16.535156 14.835938 16.648438 14.867188 16.761719 14.921875 C 16.878906 14.980469 16.964844 15.066406 17.023438 15.183594 C 17.078125 15.296875 17.109375 15.441406 17.109375 15.644531 C 17.109375 15.816406 17.078125 15.960938 17.023438 16.078125 C 16.964844 16.191406 16.878906 16.25 16.734375 16.308594 C 16.621094 16.367188 16.449219 16.367188 16.277344 16.367188 L 15.585938 16.367188 Z M 16.132812 18.066406 C 16.332031 18.066406 16.503906 18.097656 16.621094 18.125 C 16.734375 18.183594 16.847656 18.238281 16.90625 18.355469 C 16.964844 18.46875 17.023438 18.585938 17.050781 18.757812 C 17.078125 18.933594 17.078125 19.132812 17.078125 19.394531 C 17.078125 19.738281 17.078125 20.027344 17.109375 20.257812 C 17.136719 20.488281 17.136719 20.664062 17.164062 20.75 L 18.945312 20.75 L 18.945312 20.519531 C 18.886719 20.519531 18.832031 20.488281 18.800781 20.402344 C 18.773438 20.316406 18.773438 20.171875 18.773438 19.96875 C 18.773438 19.769531 18.773438 19.507812 18.773438 19.164062 C 18.773438 18.84375 18.773438 18.585938 18.742188 18.382812 C 18.714844 18.183594 18.6875 18.007812 18.628906 17.863281 C 18.570312 17.722656 18.515625 17.605469 18.457031 17.519531 C 18.371094 17.433594 18.285156 17.347656 18.199219 17.289062 C 18.113281 17.230469 17.996094 17.171875 17.882812 17.117188 C 18.082031 17.027344 18.257812 16.882812 18.398438 16.710938 C 18.542969 16.539062 18.628906 16.308594 18.6875 16.046875 C 18.742188 15.789062 18.773438 15.53125 18.773438 15.210938 C 18.773438 14.835938 18.742188 14.519531 18.65625 14.230469 C 18.570312 13.945312 18.457031 13.742188 18.257812 13.539062 C 18.082031 13.367188 17.824219 13.222656 17.539062 13.136719 C 17.222656 13.050781 16.847656 12.992188 16.417969 12.992188 L 13.894531 12.992188 L 13.894531 20.71875 L 15.644531 20.71875 L 15.644531 18.039062 L 16.132812 18.039062 Z M 22.5625 18.125 L 21.472656 18.125 L 22.015625 15.355469 Z M 20.925781 20.777344 L 21.125 19.769531 L 22.878906 19.769531 L 23.078125 20.777344 L 24.828125 20.777344 L 22.933594 13.050781 L 21.15625 13.050781 L 19.230469 20.777344 Z M 26.867188 20.777344 L 28.617188 20.777344 L 30.457031 13.050781 L 28.703125 13.050781 L 27.726562 18.183594 L 26.808594 13.050781 L 25.058594 13.050781 Z M 32.4375 20.777344 L 30.714844 20.777344 L 32.609375 13.050781 L 34.386719 13.050781 L 36.28125 20.777344 L 34.53125 20.777344 L 33.46875 15.386719 C 33.152344 17.171875 32.78125 18.960938 32.4375 20.777344 M 38.550781 13.050781 L 36.914062 13.050781 L 36.914062 20.777344 L 38.578125 20.777344 L 38.578125 18.328125 L 38.519531 16.566406 L 40.414062 20.777344 L 42.050781 20.777344 L 42.050781 13.050781 L 40.386719 13.050781 L 40.386719 15.5 L 40.445312 17.257812 Z M 43.113281 20.777344 L 44.863281 20.777344 L 44.863281 18.328125 L 45.265625 17.691406 L 46.558594 20.777344 L 48.652344 20.777344 L 46.5 15.960938 L 48.453125 13.050781 L 46.414062 13.050781 L 44.894531 15.558594 L 44.894531 13.050781 L 43.144531 13.050781 L 43.144531 20.777344 Z M 52.128906 18.125 L 51.035156 18.125 L 51.582031 15.355469 Z M 50.492188 20.777344 L 50.691406 19.769531 L 52.441406 19.769531 L 52.644531 20.777344 L 54.394531 20.777344 L 52.5 13.050781 L 50.722656 13.050781 L 48.796875 20.777344 Z M 56.664062 14.835938 L 57.464844 14.835938 C 57.609375 14.835938 57.722656 14.867188 57.839844 14.921875 C 57.953125 14.980469 58.039062 15.066406 58.097656 15.183594 C 58.15625 15.296875 58.183594 15.441406 58.183594 15.644531 C 58.183594 15.816406 58.15625 15.960938 58.097656 16.078125 C 58.039062 16.191406 57.953125 16.25 57.8125 16.308594 C 57.695312 16.367188 57.523438 16.367188 57.351562 16.367188 L 56.664062 16.367188 Z M 57.179688 18.066406 C 57.378906 18.066406 57.550781 18.097656 57.667969 18.125 C 57.78125 18.183594 57.898438 18.238281 57.953125 18.355469 C 58.011719 18.46875 58.070312 18.585938 58.070312 18.757812 C 58.097656 18.933594 58.097656 19.132812 58.097656 19.394531 C 58.097656 19.738281 58.097656 20.027344 58.125 20.257812 C 58.15625 20.488281 58.15625 20.664062 58.183594 20.75 L 59.964844 20.75 L 59.964844 20.519531 C 59.90625 20.519531 59.847656 20.488281 59.820312 20.402344 C 59.792969 20.316406 59.792969 20.171875 59.761719 19.96875 C 59.761719 19.769531 59.761719 19.507812 59.761719 19.164062 C 59.761719 18.84375 59.761719 18.585938 59.734375 18.382812 C 59.707031 18.183594 59.675781 18.007812 59.617188 17.863281 C 59.5625 17.722656 59.503906 17.605469 59.445312 17.519531 C 59.359375 17.433594 59.304688 17.347656 59.1875 17.289062 C 59.101562 17.230469 58.988281 17.171875 58.871094 17.117188 C 59.074219 17.027344 59.246094 16.882812 59.390625 16.710938 C 59.53125 16.539062 59.617188 16.308594 59.675781 16.046875 C 59.734375 15.789062 59.761719 15.53125 59.761719 15.210938 C 59.761719 14.835938 59.734375 14.519531 59.648438 14.230469 C 59.5625 13.945312 59.445312 13.742188 59.246094 13.539062 C 59.074219 13.367188 58.816406 13.222656 58.527344 13.136719 C 58.210938 13.050781 57.839844 12.992188 57.410156 12.992188 L 54.882812 12.992188 L 54.882812 20.71875 L 56.632812 20.71875 L 56.632812 18.039062 L 57.179688 18.039062 Z M 63.636719 18.125 L 62.546875 18.125 L 63.09375 15.355469 Z M 62 20.777344 L 62.203125 19.769531 L 63.953125 19.769531 L 64.15625 20.777344 L 65.90625 20.777344 L 64.011719 13.050781 L 62.230469 13.050781 L 60.335938 20.777344 Z M 62 20.777344 "/>
<path style=" stroke:none;fill-rule:nonzero;fill:rgb(0%,0%,0%);fill-opacity:1;" d="M 68.546875 31.1875 L 68.605469 31.1875 C 68.691406 31.1875 68.777344 31.1875 68.804688 31.160156 C 68.832031 31.128906 68.863281 31.101562 68.863281 31.015625 C 68.863281 30.984375 68.863281 30.957031 68.863281 30.929688 C 68.863281 30.898438 68.832031 30.898438 68.832031 30.871094 C 68.804688 30.839844 68.804688 30.839844 68.777344 30.839844 C 68.746094 30.839844 68.691406 30.839844 68.632812 30.839844 L 68.574219 30.839844 L 68.574219 31.1875 Z M 68.460938 31.648438 L 68.460938 30.753906 L 68.632812 30.753906 C 68.691406 30.753906 68.746094 30.753906 68.777344 30.753906 C 68.804688 30.753906 68.832031 30.785156 68.863281 30.785156 C 68.890625 30.8125 68.917969 30.839844 68.917969 30.871094 C 68.949219 30.898438 68.949219 30.957031 68.949219 30.984375 C 68.949219 31.070312 68.917969 31.128906 68.890625 31.160156 C 68.832031 31.1875 68.777344 31.214844 68.660156 31.214844 L 68.574219 31.214844 L 68.574219 31.621094 L 68.460938 31.621094 Z M 68.460938 31.648438 "/>
<path style=" stroke:none;fill-rule:nonzero;fill:rgb(0%,0%,0%);fill-opacity:1;" d="M 69.4375 31.273438 L 69.75 31.273438 L 69.609375 30.898438 Z M 69.207031 31.648438 L 69.609375 30.726562 L 69.980469 31.648438 L 69.894531 31.648438 L 69.78125 31.359375 L 69.40625 31.359375 L 69.292969 31.648438 Z M 69.207031 31.648438 "/>
<path style=" stroke:none;fill-rule:nonzero;fill:rgb(0%,0%,0%);fill-opacity:1;" d="M 70.296875 31.503906 L 70.355469 31.476562 C 70.355469 31.535156 70.382812 31.5625 70.410156 31.589844 C 70.441406 31.621094 70.46875 31.621094 70.527344 31.621094 C 70.585938 31.621094 70.613281 31.589844 70.671875 31.5625 C 70.699219 31.535156 70.726562 31.476562 70.726562 31.417969 C 70.726562 31.390625 70.726562 31.332031 70.699219 31.300781 C 70.671875 31.273438 70.640625 31.246094 70.554688 31.214844 C 70.46875 31.160156 70.410156 31.128906 70.382812 31.101562 C 70.355469 31.070312 70.324219 31.015625 70.324219 30.957031 C 70.324219 30.898438 70.355469 30.839844 70.382812 30.8125 C 70.410156 30.785156 70.46875 30.753906 70.554688 30.753906 C 70.613281 30.753906 70.640625 30.753906 70.671875 30.785156 C 70.699219 30.8125 70.726562 30.839844 70.757812 30.871094 L 70.699219 30.898438 C 70.699219 30.871094 70.671875 30.839844 70.640625 30.839844 C 70.613281 30.839844 70.585938 30.8125 70.554688 30.8125 C 70.5 30.8125 70.46875 30.8125 70.441406 30.839844 C 70.410156 30.871094 70.410156 30.898438 70.410156 30.957031 C 70.410156 31.015625 70.46875 31.070312 70.554688 31.128906 C 70.585938 31.128906 70.585938 31.160156 70.585938 31.160156 C 70.671875 31.1875 70.699219 31.246094 70.726562 31.273438 C 70.757812 31.300781 70.757812 31.359375 70.757812 31.417969 C 70.757812 31.503906 70.726562 31.5625 70.699219 31.621094 C 70.640625 31.675781 70.585938 31.675781 70.5 31.675781 C 70.441406 31.675781 70.382812 31.648438 70.355469 31.621094 C 70.355469 31.589844 70.324219 31.5625 70.296875 31.503906 "/>
<path style=" stroke:none;fill-rule:nonzero;fill:rgb(0%,0%,0%);fill-opacity:1;" d="M 71.214844 31.503906 L 71.273438 31.476562 C 71.273438 31.535156 71.300781 31.5625 71.332031 31.589844 C 71.359375 31.621094 71.386719 31.621094 71.445312 31.621094 C 71.503906 31.621094 71.53125 31.589844 71.589844 31.5625 C 71.617188 31.535156 71.644531 31.476562 71.644531 31.417969 C 71.644531 31.390625 71.644531 31.332031 71.617188 31.300781 C 71.589844 31.273438 71.558594 31.246094 71.472656 31.214844 C 71.386719 31.160156 71.332031 31.128906 71.300781 31.101562 C 71.273438 31.070312 71.246094 31.015625 71.246094 30.957031 C 71.246094 30.898438 71.273438 30.839844 71.300781 30.8125 C 71.332031 30.785156 71.386719 30.753906 71.472656 30.753906 C 71.53125 30.753906 71.558594 30.753906 71.589844 30.785156 C 71.617188 30.8125 71.644531 30.839844 71.675781 30.871094 L 71.617188 30.898438 C 71.617188 30.871094 71.589844 30.839844 71.558594 30.839844 C 71.53125 30.839844 71.503906 30.8125 71.472656 30.8125 C 71.417969 30.8125 71.386719 30.8125 71.359375 30.839844 C 71.332031 30.871094 71.332031 30.898438 71.332031 30.957031 C 71.332031 31.015625 71.386719 31.070312 71.472656 31.128906 C 71.503906 31.128906 71.503906 31.160156 71.503906 31.160156 C 71.589844 31.1875 71.617188 31.246094 71.644531 31.273438 C 71.675781 31.300781 71.675781 31.359375 71.675781 31.417969 C 71.675781 31.503906 71.644531 31.5625 71.617188 31.621094 C 71.558594 31.675781 71.503906 31.675781 71.417969 31.675781 C 71.359375 31.675781 71.300781 31.648438 71.273438 31.621094 C 71.273438 31.589844 71.246094 31.5625 71.214844 31.503906 "/>
<path style=" stroke:none;fill-rule:nonzero;fill:rgb(0%,0%,0%);fill-opacity:1;" d="M 72.21875 30.753906 L 72.304688 30.753906 L 72.304688 31.648438 L 72.21875 31.648438 Z M 72.21875 30.753906 "/>
<path style=" stroke:none;fill-rule:nonzero;fill:rgb(0%,0%,0%);fill-opacity:1;" d="M 73.253906 31.589844 C 73.3125 31.589844 73.367188 31.589844 73.398438 31.5625 C 73.453125 31.535156 73.484375 31.503906 73.511719 31.476562 C 73.539062 31.445312 73.570312 31.390625 73.597656 31.359375 C 73.625 31.300781 73.625 31.273438 73.625 31.214844 C 73.625 31.160156 73.625 31.101562 73.597656 31.070312 C 73.570312 31.015625 73.539062 30.984375 73.511719 30.957031 C 73.484375 30.929688 73.425781 30.898438 73.398438 30.871094 C 73.339844 30.839844 73.3125 30.839844 73.253906 30.839844 C 73.195312 30.839844 73.140625 30.839844 73.109375 30.871094 C 73.054688 30.898438 73.023438 30.929688 72.996094 30.957031 C 72.964844 30.984375 72.9375 31.042969 72.910156 31.070312 C 72.878906 31.128906 72.878906 31.160156 72.878906 31.214844 C 72.878906 31.273438 72.878906 31.332031 72.910156 31.359375 C 72.9375 31.417969 72.964844 31.445312 72.996094 31.476562 C 73.023438 31.503906 73.082031 31.535156 73.109375 31.5625 C 73.140625 31.589844 73.195312 31.589844 73.253906 31.589844 M 73.742188 31.214844 C 73.742188 31.273438 73.742188 31.332031 73.714844 31.390625 C 73.683594 31.445312 73.65625 31.503906 73.597656 31.535156 C 73.539062 31.589844 73.511719 31.621094 73.453125 31.648438 C 73.398438 31.675781 73.339844 31.675781 73.28125 31.675781 C 73.226562 31.675781 73.167969 31.675781 73.109375 31.648438 C 73.054688 31.621094 72.996094 31.589844 72.964844 31.535156 C 72.910156 31.476562 72.878906 31.445312 72.851562 31.390625 C 72.824219 31.332031 72.824219 31.273438 72.824219 31.214844 C 72.824219 31.160156 72.824219 31.101562 72.851562 31.042969 C 72.878906 30.984375 72.910156 30.929688 72.964844 30.898438 C 73.023438 30.839844 73.054688 30.8125 73.109375 30.8125 C 73.167969 30.785156 73.226562 30.785156 73.28125 30.785156 C 73.339844 30.785156 73.398438 30.785156 73.453125 30.8125 C 73.511719 30.839844 73.570312 30.871094 73.597656 30.898438 C 73.65625 30.957031 73.683594 30.984375 73.714844 31.042969 C 73.714844 31.070312 73.742188 31.128906 73.742188 31.214844 "/>
<path style=" stroke:none;fill-rule:nonzero;fill:rgb(0%,0%,0%);fill-opacity:1;" d="M 74.230469 31.648438 L 74.230469 30.726562 L 74.832031 31.476562 L 74.832031 30.753906 L 74.917969 30.753906 L 74.917969 31.675781 L 74.285156 30.929688 L 74.285156 31.648438 Z M 74.230469 31.648438 "/>
<path style=" stroke:none;fill-rule:nonzero;fill:rgb(0%,0%,0%);fill-opacity:1;" d="M 76.210938 31.273438 L 76.527344 31.273438 L 76.382812 30.898438 Z M 75.980469 31.648438 L 76.382812 30.726562 L 76.753906 31.648438 L 76.667969 31.648438 L 76.554688 31.359375 L 76.179688 31.359375 L 76.066406 31.648438 Z M 75.980469 31.648438 "/>
<path style=" stroke:none;fill-rule:nonzero;fill:rgb(0%,0%,0%);fill-opacity:1;" d="M 77.242188 31.648438 L 77.242188 30.839844 L 77.015625 30.839844 L 77.015625 30.753906 L 77.558594 30.753906 L 77.558594 30.839844 L 77.328125 30.839844 L 77.328125 31.648438 Z M 77.242188 31.648438 "/>
<path style=" stroke:none;fill-rule:nonzero;fill:rgb(0%,0%,0%);fill-opacity:1;" d="M 78.878906 31.675781 L 78.59375 30.753906 L 78.679688 30.753906 L 78.878906 31.476562 L 79.109375 30.726562 L 79.367188 31.476562 L 79.570312 30.753906 L 79.65625 30.753906 L 79.367188 31.675781 L 79.109375 30.929688 Z M 78.878906 31.675781 "/>
<path style=" stroke:none;fill-rule:nonzero;fill:rgb(0%,0%,0%);fill-opacity:1;" d="M 80.515625 31.589844 C 80.574219 31.589844 80.628906 31.589844 80.660156 31.5625 C 80.71875 31.535156 80.746094 31.503906 80.773438 31.476562 C 80.804688 31.445312 80.832031 31.390625 80.859375 31.359375 C 80.890625 31.300781 80.890625 31.273438 80.890625 31.214844 C 80.890625 31.160156 80.890625 31.101562 80.859375 31.070312 C 80.832031 31.015625 80.804688 30.984375 80.773438 30.957031 C 80.746094 30.929688 80.6875 30.898438 80.660156 30.871094 C 80.601562 30.839844 80.574219 30.839844 80.515625 30.839844 C 80.457031 30.839844 80.402344 30.839844 80.371094 30.871094 C 80.316406 30.898438 80.285156 30.929688 80.257812 30.957031 C 80.230469 30.984375 80.199219 31.042969 80.171875 31.070312 C 80.144531 31.128906 80.144531 31.160156 80.144531 31.214844 C 80.144531 31.273438 80.144531 31.332031 80.171875 31.359375 C 80.199219 31.417969 80.230469 31.445312 80.257812 31.476562 C 80.285156 31.503906 80.34375 31.535156 80.371094 31.5625 C 80.429688 31.589844 80.488281 31.589844 80.515625 31.589844 M 81.003906 31.214844 C 81.003906 31.273438 81.003906 31.332031 80.976562 31.390625 C 80.945312 31.445312 80.917969 31.503906 80.859375 31.535156 C 80.804688 31.589844 80.773438 31.621094 80.71875 31.648438 C 80.660156 31.675781 80.601562 31.675781 80.542969 31.675781 C 80.488281 31.675781 80.429688 31.675781 80.371094 31.648438 C 80.316406 31.621094 80.257812 31.589844 80.230469 31.535156 C 80.171875 31.476562 80.144531 31.445312 80.113281 31.390625 C 80.085938 31.332031 80.085938 31.273438 80.085938 31.214844 C 80.085938 31.160156 80.085938 31.101562 80.113281 31.042969 C 80.144531 30.984375 80.171875 30.929688 80.230469 30.898438 C 80.285156 30.839844 80.316406 30.8125 80.371094 30.8125 C 80.429688 30.785156 80.488281 30.785156 80.542969 30.785156 C 80.601562 30.785156 80.660156 30.785156 80.71875 30.8125 C 80.773438 30.839844 80.832031 30.871094 80.859375 30.898438 C 80.917969 30.957031 80.945312 30.984375 80.976562 31.042969 C 80.976562 31.070312 81.003906 31.128906 81.003906 31.214844 "/>
<path style=" stroke:none;fill-rule:nonzero;fill:rgb(0%,0%,0%);fill-opacity:1;" d="M 81.578125 30.839844 L 81.578125 31.160156 L 81.664062 31.160156 C 81.75 31.160156 81.777344 31.160156 81.808594 31.128906 C 81.835938 31.101562 81.863281 31.070312 81.863281 31.015625 C 81.863281 30.957031 81.835938 30.898438 81.808594 30.871094 C 81.777344 30.839844 81.722656 30.839844 81.664062 30.839844 Z M 82.039062 31.648438 L 81.949219 31.648438 L 81.636719 31.214844 L 81.578125 31.214844 L 81.578125 31.648438 L 81.492188 31.648438 L 81.492188 30.753906 L 81.664062 30.753906 C 81.75 30.753906 81.835938 30.785156 81.863281 30.8125 C 81.921875 30.839844 81.949219 30.898438 81.949219 30.984375 C 81.949219 31.042969 81.921875 31.101562 81.894531 31.160156 C 81.863281 31.1875 81.808594 31.214844 81.722656 31.214844 Z M 82.039062 31.648438 "/>
<path style=" stroke:none;fill-rule:nonzero;fill:rgb(0%,0%,0%);fill-opacity:1;" d="M 82.4375 31.648438 L 82.4375 30.753906 L 82.523438 30.753906 L 82.523438 31.1875 L 82.925781 30.753906 L 83.042969 30.753906 L 82.609375 31.1875 L 83.042969 31.648438 L 82.925781 31.648438 L 82.523438 31.1875 L 82.523438 31.648438 Z M 82.4375 31.648438 "/>
<path style=" stroke:none;fill-rule:nonzero;fill:rgb(100%,87.843137%,56.078431%);fill-opacity:1;" d="M 68.460938 2.324219 L 83.042969 2.324219 L 83.042969 29.628906 L 68.460938 29.628906 Z M 68.460938 2.324219 "/>
<path style=" stroke:none;fill-rule:nonzero;fill:rgb(92.941176%,10.980392%,14.117647%);fill-opacity:1;" d="M 73.195312 9.472656 C 73.195312 9.589844 73.109375 9.675781 72.996094 9.675781 C 72.878906 9.675781 72.792969 9.589844 72.792969 9.472656 C 72.792969 9.359375 72.878906 9.273438 72.996094 9.273438 C 73.109375 9.300781 73.195312 9.386719 73.195312 9.472656 "/>
<path style=" stroke:none;fill-rule:nonzero;fill:rgb(14.117647%,12.156863%,12.941176%);fill-opacity:1;" d="M 72.390625 19.132812 C 72.507812 19.078125 72.59375 18.960938 72.59375 18.816406 C 72.59375 18.671875 72.507812 18.527344 72.363281 18.46875 C 72.480469 18.414062 72.566406 18.296875 72.566406 18.152344 C 72.566406 17.980469 72.449219 17.863281 72.304688 17.808594 C 72.449219 17.75 72.535156 17.632812 72.535156 17.488281 C 72.535156 17.316406 72.421875 17.171875 72.25 17.144531 C 72.390625 17.117188 72.535156 16.972656 72.535156 16.828125 C 72.535156 16.652344 72.390625 16.511719 72.191406 16.511719 C 71.992188 16.511719 71.847656 16.652344 71.847656 16.828125 C 71.847656 17 71.960938 17.117188 72.132812 17.144531 C 71.960938 17.171875 71.847656 17.316406 71.847656 17.488281 C 71.847656 17.632812 71.933594 17.777344 72.078125 17.808594 C 71.933594 17.863281 71.820312 17.980469 71.820312 18.152344 C 71.820312 18.296875 71.90625 18.414062 72.019531 18.46875 C 71.875 18.527344 71.789062 18.671875 71.789062 18.816406 C 71.789062 18.960938 71.875 19.078125 71.992188 19.132812 C 71.875 19.191406 71.789062 19.335938 71.789062 19.480469 C 71.789062 19.683594 71.960938 19.855469 72.191406 19.855469 C 72.421875 19.855469 72.59375 19.683594 72.59375 19.480469 C 72.621094 19.335938 72.535156 19.191406 72.390625 19.132812 M 79.28125 10.339844 C 79.394531 10.339844 79.484375 10.253906 79.484375 10.136719 C 79.484375 10.023438 79.394531 9.933594 79.28125 9.933594 C 79.167969 9.933594 79.082031 10.023438 79.082031 10.136719 C 79.082031 10.253906 79.195312 10.339844 79.28125 10.339844 M 79.28125 11.03125 C 79.394531 11.03125 79.484375 10.945312 79.484375 10.828125 C 79.484375 10.714844 79.394531 10.628906 79.28125 10.628906 C 79.167969 10.628906 79.082031 10.714844 79.082031 10.828125 C 79.082031 10.945312 79.167969 11.03125 79.28125 11.03125 M 79.28125 11.722656 C 79.394531 11.722656 79.511719 11.636719 79.511719 11.492188 C 79.511719 11.378906 79.394531 11.261719 79.28125 11.261719 C 79.167969 11.261719 79.050781 11.347656 79.050781 11.492188 C 79.050781 11.609375 79.167969 11.722656 79.28125 11.722656 M 79.28125 12.386719 C 79.425781 12.386719 79.511719 12.269531 79.511719 12.15625 C 79.511719 12.011719 79.394531 11.925781 79.28125 11.925781 C 79.136719 11.925781 79.050781 12.039062 79.050781 12.15625 C 79.050781 12.269531 79.167969 12.386719 79.28125 12.386719 M 79.28125 13.078125 C 79.425781 13.078125 79.539062 12.964844 79.539062 12.820312 C 79.539062 12.675781 79.425781 12.558594 79.28125 12.558594 C 79.136719 12.558594 79.023438 12.675781 79.023438 12.820312 C 79.023438 12.964844 79.136719 13.078125 79.28125 13.078125 M 79.28125 13.742188 C 79.425781 13.742188 79.539062 13.625 79.539062 13.480469 C 79.539062 13.335938 79.425781 13.222656 79.28125 13.222656 C 79.136719 13.222656 79.023438 13.335938 79.023438 13.480469 C 79.023438 13.625 79.136719 13.742188 79.28125 13.742188 M 79.28125 14.433594 C 79.425781 14.433594 79.570312 14.316406 79.570312 14.144531 C 79.570312 14 79.453125 13.855469 79.28125 13.855469 C 79.136719 13.855469 78.996094 13.972656 78.996094 14.144531 C 79.023438 14.316406 79.136719 14.433594 79.28125 14.433594 M 79.28125 15.097656 C 79.453125 15.097656 79.570312 14.953125 79.570312 14.808594 C 79.570312 14.636719 79.425781 14.519531 79.28125 14.519531 C 79.109375 14.519531 78.996094 14.664062 78.996094 14.808594 C 78.996094 14.980469 79.136719 15.097656 79.28125 15.097656 M 79.28125 15.789062 C 79.453125 15.789062 79.597656 15.644531 79.597656 15.472656 C 79.597656 15.296875 79.453125 15.15625 79.28125 15.15625 C 79.109375 15.15625 78.964844 15.296875 78.964844 15.472656 C 78.996094 15.644531 79.109375 15.789062 79.28125 15.789062 M 79.28125 16.480469 C 79.453125 16.480469 79.597656 16.335938 79.597656 16.164062 C 79.597656 15.992188 79.453125 15.847656 79.28125 15.847656 C 79.109375 15.847656 78.964844 15.992188 78.964844 16.164062 C 78.964844 16.335938 79.109375 16.480469 79.28125 16.480469 M 79.484375 19.132812 C 79.597656 19.078125 79.683594 18.960938 79.683594 18.816406 C 79.683594 18.671875 79.597656 18.527344 79.453125 18.46875 C 79.570312 18.414062 79.65625 18.296875 79.65625 18.152344 C 79.65625 17.980469 79.539062 17.863281 79.394531 17.808594 C 79.539062 17.75 79.625 17.632812 79.625 17.488281 C 79.625 17.316406 79.511719 17.171875 79.339844 17.144531 C 79.484375 17.117188 79.625 16.972656 79.625 16.828125 C 79.625 16.652344 79.484375 16.511719 79.28125 16.511719 C 79.109375 16.511719 78.9375 16.652344 78.9375 16.828125 C 78.9375 17 79.050781 17.117188 79.222656 17.144531 C 79.050781 17.171875 78.9375 17.316406 78.9375 17.488281 C 78.9375 17.632812 79.023438 17.777344 79.167969 17.808594 C 79.023438 17.863281 78.910156 17.980469 78.910156 18.152344 C 78.910156 18.296875 78.996094 18.414062 79.109375 18.46875 C 78.964844 18.527344 78.878906 18.671875 78.878906 18.816406 C 78.878906 18.960938 78.964844 19.078125 79.082031 19.132812 C 78.964844 19.191406 78.878906 19.335938 78.878906 19.480469 C 78.878906 19.683594 79.050781 19.855469 79.28125 19.855469 C 79.511719 19.855469 79.683594 19.683594 79.683594 19.480469 C 79.683594 19.335938 79.597656 19.191406 79.484375 19.132812 M 78.507812 10.339844 C 78.621094 10.339844 78.707031 10.253906 78.707031 10.136719 C 78.707031 10.023438 78.621094 9.933594 78.507812 9.933594 C 78.390625 9.933594 78.304688 10.023438 78.304688 10.136719 C 78.304688 10.253906 78.390625 10.339844 78.507812 10.339844 M 78.507812 11.03125 C 78.621094 11.03125 78.707031 10.945312 78.707031 10.828125 C 78.707031 10.714844 78.621094 10.628906 78.507812 10.628906 C 78.390625 10.628906 78.304688 10.714844 78.304688 10.828125 C 78.304688 10.945312 78.390625 11.03125 78.507812 11.03125 M 78.507812 11.722656 C 78.621094 11.722656 78.734375 11.636719 78.734375 11.492188 C 78.734375 11.378906 78.621094 11.261719 78.507812 11.261719 C 78.390625 11.261719 78.277344 11.347656 78.277344 11.492188 C 78.277344 11.609375 78.390625 11.722656 78.507812 11.722656 M 78.507812 12.386719 C 78.648438 12.386719 78.734375 12.269531 78.734375 12.15625 C 78.734375 12.011719 78.621094 11.925781 78.507812 11.925781 C 78.363281 11.925781 78.277344 12.039062 78.277344 12.15625 C 78.277344 12.269531 78.363281 12.386719 78.507812 12.386719 M 78.507812 13.078125 C 78.648438 13.078125 78.765625 12.964844 78.765625 12.820312 C 78.765625 12.675781 78.648438 12.558594 78.507812 12.558594 C 78.363281 12.558594 78.25 12.675781 78.25 12.820312 C 78.25 12.964844 78.363281 13.078125 78.507812 13.078125 M 78.507812 13.742188 C 78.648438 13.742188 78.765625 13.625 78.765625 13.480469 C 78.765625 13.335938 78.648438 13.222656 78.507812 13.222656 C 78.363281 13.222656 78.25 13.335938 78.25 13.480469 C 78.25 13.625 78.363281 13.742188 78.507812 13.742188 M 78.507812 14.433594 C 78.648438 14.433594 78.792969 14.316406 78.792969 14.144531 C 78.792969 14 78.679688 13.855469 78.507812 13.855469 C 78.335938 13.855469 78.21875 13.972656 78.21875 14.144531 C 78.21875 14.316406 78.363281 14.433594 78.507812 14.433594 M 78.507812 15.097656 C 78.679688 15.097656 78.792969 14.953125 78.792969 14.808594 C 78.792969 14.636719 78.648438 14.519531 78.507812 14.519531 C 78.335938 14.519531 78.21875 14.664062 78.21875 14.808594 C 78.21875 14.980469 78.335938 15.097656 78.507812 15.097656 M 78.507812 15.789062 C 78.679688 15.789062 78.824219 15.644531 78.824219 15.472656 C 78.824219 15.296875 78.679688 15.15625 78.507812 15.15625 C 78.335938 15.15625 78.191406 15.296875 78.191406 15.472656 C 78.191406 15.644531 78.335938 15.789062 78.507812 15.789062 M 78.507812 16.480469 C 78.679688 16.480469 78.824219 16.335938 78.824219 16.164062 C 78.824219 15.992188 78.679688 15.847656 78.507812 15.847656 C 78.335938 15.847656 78.191406 15.992188 78.191406 16.164062 C 78.191406 16.335938 78.335938 16.480469 78.507812 16.480469 M 78.679688 19.132812 C 78.792969 19.078125 78.878906 18.960938 78.878906 18.816406 C 78.878906 18.671875 78.792969 18.527344 78.648438 18.46875 C 78.765625 18.414062 78.851562 18.296875 78.851562 18.152344 C 78.851562 17.980469 78.734375 17.863281 78.59375 17.808594 C 78.734375 17.75 78.824219 17.632812 78.824219 17.488281 C 78.824219 17.316406 78.707031 17.171875 78.535156 17.144531 C 78.679688 17.117188 78.824219 16.972656 78.824219 16.828125 C 78.824219 16.652344 78.679688 16.511719 78.476562 16.511719 C 78.304688 16.511719 78.132812 16.652344 78.132812 16.828125 C 78.132812 17 78.25 17.117188 78.421875 17.144531 C 78.25 17.171875 78.132812 17.316406 78.132812 17.488281 C 78.132812 17.632812 78.21875 17.777344 78.363281 17.808594 C 78.21875 17.863281 78.105469 17.980469 78.105469 18.152344 C 78.105469 18.296875 78.191406 18.414062 78.304688 18.46875 C 78.164062 18.527344 78.074219 18.671875 78.074219 18.816406 C 78.074219 18.960938 78.164062 19.078125 78.277344 19.132812 C 78.164062 19.191406 78.074219 19.335938 78.074219 19.480469 C 78.074219 19.335938 77.988281 19.191406 77.875 19.132812 C 77.988281 19.078125 78.074219 18.960938 78.074219 18.816406 C 78.074219 18.671875 77.988281 18.527344 77.847656 18.46875 C 77.960938 18.414062 78.046875 18.296875 78.046875 18.152344 C 78.046875 17.980469 77.933594 17.863281 77.789062 17.808594 C 77.933594 17.75 78.019531 17.632812 78.019531 17.488281 C 78.019531 17.316406 77.902344 17.171875 77.730469 17.144531 C 77.875 17.117188 78.019531 16.972656 78.019531 16.828125 C 78.019531 16.652344 77.875 16.511719 77.675781 16.511719 C 77.472656 16.511719 77.328125 16.652344 77.328125 16.828125 C 77.328125 17 77.445312 17.117188 77.617188 17.144531 C 77.445312 17.171875 77.328125 17.316406 77.328125 17.488281 C 77.328125 17.632812 77.414062 17.777344 77.558594 17.808594 C 77.414062 17.863281 77.300781 17.980469 77.300781 18.152344 C 77.300781 18.296875 77.386719 18.414062 77.5 18.46875 C 77.359375 18.527344 77.273438 18.671875 77.273438 18.816406 C 77.273438 18.960938 77.359375 19.078125 77.472656 19.132812 C 77.359375 19.191406 77.273438 19.335938 77.273438 19.480469 C 77.273438 19.335938 77.1875 19.191406 77.070312 19.132812 C 77.1875 19.078125 77.273438 18.960938 77.273438 18.816406 C 77.273438 18.671875 77.1875 18.527344 77.042969 18.46875 C 77.15625 18.414062 77.242188 18.296875 77.242188 18.152344 C 77.242188 17.980469 77.128906 17.863281 76.984375 17.808594 C 77.128906 17.75 77.214844 17.632812 77.214844 17.488281 C 77.214844 17.316406 77.101562 17.171875 76.929688 17.144531 C 77.070312 17.117188 77.214844 16.972656 77.214844 16.828125 C 77.214844 16.652344 77.070312 16.511719 76.871094 16.511719 C 76.699219 16.511719 76.527344 16.652344 76.527344 16.828125 C 76.527344 17 76.640625 17.117188 76.8125 17.144531 C 76.640625 17.171875 76.527344 17.316406 76.527344 17.488281 C 76.527344 17.632812 76.613281 17.777344 76.753906 17.808594 C 76.613281 17.863281 76.496094 17.980469 76.496094 18.152344 C 76.496094 18.296875 76.582031 18.414062 76.699219 18.46875 C 76.554688 18.527344 76.46875 18.671875 76.46875 18.816406 C 76.46875 18.960938 76.554688 19.078125 76.667969 19.132812 C 76.554688 19.191406 76.46875 19.335938 76.46875 19.480469 C 76.46875 19.683594 76.640625 19.855469 76.871094 19.855469 C 77.101562 19.855469 77.273438 19.683594 77.273438 19.480469 C 77.273438 19.683594 77.445312 19.855469 77.675781 19.855469 C 77.902344 19.855469 78.074219 19.683594 78.074219 19.480469 C 78.074219 19.683594 78.25 19.855469 78.476562 19.855469 C 78.707031 19.855469 78.878906 19.683594 78.878906 19.480469 C 78.910156 19.335938 78.824219 19.191406 78.679688 19.132812 M 77.730469 12.386719 C 77.875 12.386719 77.960938 12.269531 77.960938 12.15625 C 77.960938 12.011719 77.847656 11.925781 77.730469 11.925781 C 77.589844 11.925781 77.5 12.039062 77.5 12.15625 C 77.472656 12.269531 77.589844 12.386719 77.730469 12.386719 M 77.730469 13.078125 C 77.875 13.078125 77.988281 12.964844 77.988281 12.820312 C 77.988281 12.675781 77.875 12.558594 77.730469 12.558594 C 77.589844 12.558594 77.472656 12.675781 77.472656 12.820312 C 77.472656 12.964844 77.589844 13.078125 77.730469 13.078125 M 77.730469 13.742188 C 77.875 13.742188 77.988281 13.625 77.988281 13.480469 C 77.988281 13.335938 77.875 13.222656 77.730469 13.222656 C 77.589844 13.222656 77.472656 13.335938 77.472656 13.480469 C 77.445312 13.625 77.558594 13.742188 77.730469 13.742188 M 77.730469 14.433594 C 77.875 14.433594 78.019531 14.316406 78.019531 14.144531 C 78.019531 14 77.902344 13.855469 77.730469 13.855469 C 77.589844 13.855469 77.445312 13.972656 77.445312 14.144531 C 77.445312 14.316406 77.558594 14.433594 77.730469 14.433594 M 77.730469 15.097656 C 77.902344 15.097656 78.019531 14.953125 78.019531 14.808594 C 78.019531 14.636719 77.875 14.519531 77.730469 14.519531 C 77.558594 14.519531 77.445312 14.664062 77.445312 14.808594 C 77.414062 14.980469 77.558594 15.097656 77.730469 15.097656 M 77.730469 15.789062 C 77.902344 15.789062 78.046875 15.644531 78.046875 15.472656 C 78.046875 15.296875 77.902344 15.15625 77.730469 15.15625 C 77.558594 15.15625 77.414062 15.296875 77.414062 15.472656 C 77.414062 15.644531 77.558594 15.789062 77.730469 15.789062 M 77.730469 16.480469 C 77.902344 16.480469 78.046875 16.335938 78.046875 16.164062 C 78.046875 15.992188 77.902344 15.847656 77.730469 15.847656 C 77.558594 15.847656 77.414062 15.992188 77.414062 16.164062 C 77.386719 16.335938 77.53125 16.480469 77.730469 16.480469 M 76.929688 14.433594 C 77.070312 14.433594 77.214844 14.316406 77.214844 14.144531 C 77.214844 14 77.101562 13.855469 76.929688 13.855469 C 76.785156 13.855469 76.640625 13.972656 76.640625 14.144531 C 76.640625 14.316406 76.785156 14.433594 76.929688 14.433594 M 76.929688 15.097656 C 77.101562 15.097656 77.214844 14.953125 77.214844 14.808594 C 77.214844 14.636719 77.070312 14.519531 76.929688 14.519531 C 76.753906 14.519531 76.640625 14.664062 76.640625 14.808594 C 76.640625 14.980469 76.785156 15.097656 76.929688 15.097656 M 76.929688 15.789062 C 77.101562 15.789062 77.242188 15.644531 77.242188 15.472656 C 77.242188 15.296875 77.101562 15.15625 76.929688 15.15625 C 76.753906 15.15625 76.613281 15.296875 76.613281 15.472656 C 76.613281 15.644531 76.753906 15.789062 76.929688 15.789062 M 76.929688 16.480469 C 77.101562 16.480469 77.242188 16.335938 77.242188 16.164062 C 77.242188 15.992188 77.101562 15.847656 76.929688 15.847656 C 76.753906 15.847656 76.613281 15.992188 76.613281 16.164062 C 76.613281 16.335938 76.753906 16.480469 76.929688 16.480469 M 76.152344 15.097656 C 76.324219 15.097656 76.441406 14.953125 76.441406 14.808594 C 76.441406 14.636719 76.296875 14.519531 76.152344 14.519531 C 75.980469 14.519531 75.867188 14.664062 75.867188 14.808594 C 75.867188 14.980469 75.980469 15.097656 76.152344 15.097656 M 76.152344 15.789062 C 76.324219 15.789062 76.46875 15.644531 76.46875 15.472656 C 76.46875 15.296875 76.324219 15.15625 76.152344 15.15625 C 75.980469 15.15625 75.835938 15.296875 75.835938 15.472656 C 75.835938 15.644531 75.980469 15.789062 76.152344 15.789062 M 76.152344 16.480469 C 76.324219 16.480469 76.46875 16.335938 76.46875 16.164062 C 76.46875 15.992188 76.324219 15.847656 76.152344 15.847656 C 75.980469 15.847656 75.835938 15.992188 75.835938 16.164062 C 75.835938 16.335938 75.980469 16.480469 76.152344 16.480469 M 76.324219 19.132812 C 76.441406 19.078125 76.527344 18.960938 76.527344 18.816406 C 76.527344 18.671875 76.441406 18.527344 76.296875 18.46875 C 76.410156 18.414062 76.496094 18.296875 76.496094 18.152344 C 76.496094 17.980469 76.382812 17.863281 76.238281 17.808594 C 76.382812 17.75 76.46875 17.632812 76.46875 17.488281 C 76.46875 17.316406 76.355469 17.171875 76.179688 17.144531 C 76.324219 17.117188 76.46875 16.972656 76.46875 16.828125 C 76.46875 16.652344 76.324219 16.511719 76.125 16.511719 C 75.953125 16.511719 75.78125 16.652344 75.78125 16.828125 C 75.78125 17 75.894531 17.117188 76.066406 17.144531 C 75.894531 17.171875 75.78125 17.316406 75.78125 17.488281 C 75.78125 17.632812 75.867188 17.777344 76.007812 17.808594 C 75.867188 17.863281 75.75 17.980469 75.75 18.152344 C 75.75 18.296875 75.835938 18.414062 75.953125 18.46875 C 75.808594 18.527344 75.722656 18.671875 75.722656 18.816406 C 75.722656 18.960938 75.808594 19.078125 75.921875 19.132812 C 75.808594 19.191406 75.722656 19.335938 75.722656 19.480469 C 75.722656 19.683594 75.894531 19.855469 76.125 19.855469 C 76.355469 19.855469 76.527344 19.683594 76.527344 19.480469 C 76.554688 19.335938 76.46875 19.191406 76.324219 19.132812 M 75.347656 11.03125 C 75.464844 11.03125 75.550781 10.945312 75.550781 10.828125 C 75.550781 10.714844 75.464844 10.628906 75.347656 10.628906 C 75.234375 10.628906 75.148438 10.714844 75.148438 10.828125 C 75.148438 10.945312 75.234375 11.03125 75.347656 11.03125 M 75.347656 11.722656 C 75.464844 11.722656 75.578125 11.636719 75.578125 11.492188 C 75.578125 11.378906 75.464844 11.261719 75.347656 11.261719 C 75.234375 11.261719 75.121094 11.347656 75.121094 11.492188 C 75.148438 11.609375 75.234375 11.722656 75.347656 11.722656 M 75.347656 12.386719 C 75.492188 12.386719 75.578125 12.269531 75.578125 12.15625 C 75.578125 12.011719 75.464844 11.925781 75.347656 11.925781 C 75.207031 11.925781 75.121094 12.039062 75.121094 12.15625 C 75.121094 12.269531 75.234375 12.386719 75.347656 12.386719 M 75.347656 13.078125 C 75.492188 13.078125 75.609375 12.964844 75.609375 12.820312 C 75.609375 12.675781 75.492188 12.558594 75.347656 12.558594 C 75.207031 12.558594 75.089844 12.675781 75.089844 12.820312 C 75.121094 12.964844 75.234375 13.078125 75.347656 13.078125 M 75.347656 13.742188 C 75.492188 13.742188 75.609375 13.625 75.609375 13.480469 C 75.609375 13.335938 75.492188 13.222656 75.347656 13.222656 C 75.207031 13.222656 75.089844 13.335938 75.089844 13.480469 C 75.089844 13.625 75.207031 13.742188 75.347656 13.742188 M 75.347656 14.433594 C 75.492188 14.433594 75.636719 14.316406 75.636719 14.144531 C 75.636719 14 75.519531 13.855469 75.347656 13.855469 C 75.207031 13.855469 75.0625 13.972656 75.0625 14.144531 C 75.089844 14.316406 75.207031 14.433594 75.347656 14.433594 M 75.347656 15.097656 C 75.519531 15.097656 75.636719 14.953125 75.636719 14.808594 C 75.636719 14.636719 75.492188 14.519531 75.347656 14.519531 C 75.175781 14.519531 75.0625 14.664062 75.0625 14.808594 C 75.0625 14.980469 75.207031 15.097656 75.347656 15.097656 M 75.347656 15.789062 C 75.519531 15.789062 75.664062 15.644531 75.664062 15.472656 C 75.664062 15.296875 75.519531 15.15625 75.347656 15.15625 C 75.175781 15.15625 75.035156 15.296875 75.035156 15.472656 C 75.0625 15.644531 75.207031 15.789062 75.347656 15.789062 M 75.347656 16.480469 C 75.519531 16.480469 75.664062 16.335938 75.664062 16.164062 C 75.664062 15.992188 75.519531 15.847656 75.347656 15.847656 C 75.175781 15.847656 75.035156 15.992188 75.035156 16.164062 C 75.035156 16.335938 75.175781 16.480469 75.347656 16.480469 M 75.550781 19.132812 C 75.664062 19.078125 75.75 18.960938 75.75 18.816406 C 75.75 18.671875 75.664062 18.527344 75.519531 18.46875 C 75.636719 18.414062 75.722656 18.296875 75.722656 18.152344 C 75.722656 17.980469 75.609375 17.863281 75.464844 17.808594 C 75.609375 17.75 75.695312 17.632812 75.695312 17.488281 C 75.695312 17.316406 75.578125 17.171875 75.40625 17.144531 C 75.550781 17.117188 75.695312 16.972656 75.695312 16.828125 C 75.695312 16.652344 75.550781 16.511719 75.347656 16.511719 C 75.148438 16.511719 75.003906 16.652344 75.003906 16.828125 C 75.003906 17 75.121094 17.117188 75.292969 17.144531 C 75.121094 17.171875 75.003906 17.316406 75.003906 17.488281 C 75.003906 17.632812 75.089844 17.777344 75.234375 17.808594 C 75.089844 17.863281 74.976562 17.980469 74.976562 18.152344 C 74.976562 18.296875 75.0625 18.414062 75.175781 18.46875 C 75.035156 18.527344 74.945312 18.671875 74.945312 18.816406 C 74.945312 18.960938 75.035156 19.078125 75.148438 19.132812 C 75.035156 19.191406 74.945312 19.335938 74.945312 19.480469 C 74.945312 19.683594 75.121094 19.855469 75.347656 19.855469 C 75.578125 19.855469 75.75 19.683594 75.75 19.480469 C 75.75 19.335938 75.664062 19.191406 75.550781 19.132812 M 74.574219 11.03125 C 74.6875 11.03125 74.773438 10.945312 74.773438 10.828125 C 74.773438 10.714844 74.6875 10.628906 74.574219 10.628906 C 74.460938 10.628906 74.375 10.714844 74.375 10.828125 C 74.375 10.945312 74.460938 11.03125 74.574219 11.03125 M 74.574219 11.722656 C 74.6875 11.722656 74.804688 11.636719 74.804688 11.492188 C 74.804688 11.378906 74.6875 11.261719 74.574219 11.261719 C 74.460938 11.261719 74.34375 11.347656 74.34375 11.492188 C 74.34375 11.609375 74.460938 11.722656 74.574219 11.722656 M 74.574219 12.386719 C 74.71875 12.386719 74.804688 12.269531 74.804688 12.15625 C 74.804688 12.011719 74.6875 11.925781 74.574219 11.925781 C 74.429688 11.925781 74.34375 12.039062 74.34375 12.15625 C 74.34375 12.269531 74.429688 12.386719 74.574219 12.386719 M 74.574219 13.078125 C 74.71875 13.078125 74.832031 12.964844 74.832031 12.820312 C 74.832031 12.675781 74.71875 12.558594 74.574219 12.558594 C 74.429688 12.558594 74.316406 12.675781 74.316406 12.820312 C 74.316406 12.964844 74.429688 13.078125 74.574219 13.078125 M 74.574219 13.742188 C 74.71875 13.742188 74.832031 13.625 74.832031 13.480469 C 74.832031 13.335938 74.71875 13.222656 74.574219 13.222656 C 74.429688 13.222656 74.316406 13.335938 74.316406 13.480469 C 74.316406 13.625 74.429688 13.742188 74.574219 13.742188 M 74.574219 14.433594 C 74.71875 14.433594 74.859375 14.316406 74.859375 14.144531 C 74.859375 14 74.746094 13.855469 74.574219 13.855469 C 74.429688 13.855469 74.285156 13.972656 74.285156 14.144531 C 74.285156 14.316406 74.429688 14.433594 74.574219 14.433594 M 74.574219 15.097656 C 74.746094 15.097656 74.859375 14.953125 74.859375 14.808594 C 74.859375 14.636719 74.71875 14.519531 74.574219 14.519531 C 74.402344 14.519531 74.285156 14.664062 74.285156 14.808594 C 74.285156 14.980469 74.402344 15.097656 74.574219 15.097656 M 74.574219 15.789062 C 74.746094 15.789062 74.890625 15.644531 74.890625 15.472656 C 74.890625 15.296875 74.746094 15.15625 74.574219 15.15625 C 74.402344 15.15625 74.257812 15.296875 74.257812 15.472656 C 74.257812 15.644531 74.402344 15.789062 74.574219 15.789062 M 74.574219 16.480469 C 74.746094 16.480469 74.890625 16.335938 74.890625 16.164062 C 74.890625 15.992188 74.746094 15.847656 74.574219 15.847656 C 74.402344 15.847656 74.257812 15.992188 74.257812 16.164062 C 74.257812 16.335938 74.402344 16.480469 74.574219 16.480469 M 74.773438 19.132812 C 74.890625 19.078125 74.976562 18.960938 74.976562 18.816406 C 74.976562 18.671875 74.890625 18.527344 74.746094 18.46875 C 74.859375 18.414062 74.945312 18.296875 74.945312 18.152344 C 74.945312 17.980469 74.832031 17.863281 74.6875 17.808594 C 74.832031 17.75 74.917969 17.632812 74.917969 17.488281 C 74.917969 17.316406 74.804688 17.171875 74.632812 17.144531 C 74.773438 17.117188 74.917969 16.972656 74.917969 16.828125 C 74.917969 16.652344 74.773438 16.511719 74.574219 16.511719 C 74.375 16.511719 74.230469 16.652344 74.230469 16.828125 C 74.230469 17 74.34375 17.117188 74.515625 17.144531 C 74.34375 17.171875 74.230469 17.316406 74.230469 17.488281 C 74.230469 17.632812 74.316406 17.777344 74.460938 17.808594 C 74.316406 17.863281 74.199219 17.980469 74.199219 18.152344 C 74.199219 18.296875 74.285156 18.414062 74.402344 18.46875 C 74.257812 18.527344 74.171875 18.671875 74.171875 18.816406 C 74.171875 18.960938 74.257812 19.078125 74.375 19.132812 C 74.257812 19.191406 74.171875 19.335938 74.171875 19.480469 C 74.171875 19.683594 74.34375 19.855469 74.574219 19.855469 C 74.804688 19.855469 74.976562 19.683594 74.976562 19.480469 C 74.976562 19.335938 74.890625 19.191406 74.773438 19.132812 M 73.800781 13.078125 C 73.941406 13.078125 74.058594 12.964844 74.058594 12.820312 C 74.058594 12.675781 73.941406 12.558594 73.800781 12.558594 C 73.65625 12.558594 73.539062 12.675781 73.539062 12.820312 C 73.539062 12.964844 73.65625 13.078125 73.800781 13.078125 M 73.800781 13.742188 C 73.941406 13.742188 74.058594 13.625 74.058594 13.480469 C 74.058594 13.335938 73.941406 13.222656 73.800781 13.222656 C 73.65625 13.222656 73.539062 13.335938 73.539062 13.480469 C 73.511719 13.625 73.65625 13.742188 73.800781 13.742188 M 73.800781 14.433594 C 73.941406 14.433594 74.085938 14.316406 74.085938 14.144531 C 74.085938 14 73.972656 13.855469 73.800781 13.855469 C 73.65625 13.855469 73.511719 13.972656 73.511719 14.144531 C 73.511719 14.316406 73.625 14.433594 73.800781 14.433594 M 73.800781 15.097656 C 73.972656 15.097656 74.085938 14.953125 74.085938 14.808594 C 74.085938 14.636719 73.941406 14.519531 73.800781 14.519531 C 73.625 14.519531 73.511719 14.664062 73.511719 14.808594 C 73.484375 14.980469 73.625 15.097656 73.800781 15.097656 M 73.800781 15.789062 C 73.972656 15.789062 74.113281 15.644531 74.113281 15.472656 C 74.113281 15.296875 73.972656 15.15625 73.800781 15.15625 C 73.625 15.15625 73.484375 15.296875 73.484375 15.472656 C 73.484375 15.644531 73.625 15.789062 73.800781 15.789062 M 73.800781 16.480469 C 73.972656 16.480469 74.113281 16.335938 74.113281 16.164062 C 74.113281 15.992188 73.972656 15.847656 73.800781 15.847656 C 73.625 15.847656 73.484375 15.992188 73.484375 16.164062 C 73.453125 16.335938 73.625 16.480469 73.800781 16.480469 M 73.972656 19.132812 C 74.085938 19.078125 74.171875 18.960938 74.171875 18.816406 C 74.171875 18.671875 74.085938 18.527344 73.941406 18.46875 C 74.058594 18.414062 74.144531 18.296875 74.144531 18.152344 C 74.144531 17.980469 74.027344 17.863281 73.886719 17.808594 C 74.027344 17.75 74.113281 17.632812 74.113281 17.488281 C 74.113281 17.316406 74 17.171875 73.828125 17.144531 C 73.972656 17.117188 74.113281 16.972656 74.113281 16.828125 C 74.113281 16.652344 73.972656 16.511719 73.769531 16.511719 C 73.570312 16.511719 73.425781 16.652344 73.425781 16.828125 C 73.425781 17 73.539062 17.117188 73.714844 17.144531 C 73.539062 17.171875 73.425781 17.316406 73.425781 17.488281 C 73.425781 17.632812 73.511719 17.777344 73.65625 17.808594 C 73.511719 17.863281 73.398438 17.980469 73.398438 18.152344 C 73.398438 18.296875 73.484375 18.414062 73.597656 18.46875 C 73.453125 18.527344 73.367188 18.671875 73.367188 18.816406 C 73.367188 18.960938 73.453125 19.078125 73.570312 19.132812 C 73.453125 19.191406 73.367188 19.335938 73.367188 19.480469 C 73.367188 19.683594 73.539062 19.855469 73.769531 19.855469 C 74 19.855469 74.171875 19.683594 74.171875 19.480469 C 74.171875 19.335938 74.113281 19.191406 73.972656 19.132812 M 72.996094 10.339844 C 73.109375 10.339844 73.195312 10.253906 73.195312 10.136719 C 73.195312 10.023438 73.109375 9.933594 72.996094 9.933594 C 72.878906 9.933594 72.792969 10.023438 72.792969 10.136719 C 72.792969 10.253906 72.910156 10.339844 72.996094 10.339844 M 72.996094 11.03125 C 73.109375 11.03125 73.195312 10.945312 73.195312 10.828125 C 73.195312 10.714844 73.109375 10.628906 72.996094 10.628906 C 72.878906 10.628906 72.792969 10.714844 72.792969 10.828125 C 72.792969 10.945312 72.878906 11.03125 72.996094 11.03125 M 72.996094 11.722656 C 73.109375 11.722656 73.226562 11.636719 73.226562 11.492188 C 73.226562 11.378906 73.109375 11.261719 72.996094 11.261719 C 72.878906 11.261719 72.765625 11.347656 72.765625 11.492188 C 72.765625 11.609375 72.878906 11.722656 72.996094 11.722656 M 72.996094 12.386719 C 73.140625 12.386719 73.226562 12.269531 73.226562 12.15625 C 73.226562 12.011719 73.109375 11.925781 72.996094 11.925781 C 72.851562 11.925781 72.765625 12.039062 72.765625 12.15625 C 72.765625 12.269531 72.878906 12.386719 72.996094 12.386719 M 72.996094 13.078125 C 73.140625 13.078125 73.253906 12.964844 73.253906 12.820312 C 73.253906 12.675781 73.140625 12.558594 72.996094 12.558594 C 72.851562 12.558594 72.738281 12.675781 72.738281 12.820312 C 72.765625 12.964844 72.851562 13.078125 72.996094 13.078125 M 72.996094 13.742188 C 73.140625 13.742188 73.253906 13.625 73.253906 13.480469 C 73.253906 13.335938 73.140625 13.222656 72.996094 13.222656 C 72.851562 13.222656 72.738281 13.335938 72.738281 13.480469 C 72.738281 13.625 72.851562 13.742188 72.996094 13.742188 M 72.996094 14.433594 C 73.140625 14.433594 73.28125 14.316406 73.28125 14.144531 C 73.28125 14 73.167969 13.855469 72.996094 13.855469 C 72.851562 13.855469 72.707031 13.972656 72.707031 14.144531 C 72.738281 14.316406 72.851562 14.433594 72.996094 14.433594 M 72.996094 15.097656 C 73.167969 15.097656 73.28125 14.953125 73.28125 14.808594 C 73.28125 14.636719 73.140625 14.519531 72.996094 14.519531 C 72.824219 14.519531 72.707031 14.664062 72.707031 14.808594 C 72.707031 14.980469 72.851562 15.097656 72.996094 15.097656 M 72.996094 15.789062 C 73.167969 15.789062 73.3125 15.644531 73.3125 15.472656 C 73.3125 15.296875 73.167969 15.15625 72.996094 15.15625 C 72.824219 15.15625 72.679688 15.296875 72.679688 15.472656 C 72.707031 15.644531 72.824219 15.789062 72.996094 15.789062 M 72.996094 16.480469 C 73.167969 16.480469 73.3125 16.335938 73.3125 16.164062 C 73.3125 15.992188 73.167969 15.847656 72.996094 15.847656 C 72.824219 15.847656 72.679688 15.992188 72.679688 16.164062 C 72.679688 16.335938 72.824219 16.480469 72.996094 16.480469 M 73.195312 19.132812 C 73.3125 19.078125 73.398438 18.960938 73.398438 18.816406 C 73.398438 18.671875 73.3125 18.527344 73.167969 18.46875 C 73.28125 18.414062 73.367188 18.296875 73.367188 18.152344 C 73.367188 17.980469 73.253906 17.863281 73.109375 17.808594 C 73.253906 17.75 73.339844 17.632812 73.339844 17.488281 C 73.339844 17.316406 73.226562 17.171875 73.054688 17.144531 C 73.195312 17.117188 73.339844 16.972656 73.339844 16.828125 C 73.339844 16.652344 73.195312 16.511719 72.996094 16.511719 C 72.792969 16.511719 72.652344 16.652344 72.652344 16.828125 C 72.652344 17 72.765625 17.117188 72.9375 17.144531 C 72.765625 17.171875 72.652344 17.316406 72.652344 17.488281 C 72.652344 17.632812 72.738281 17.777344 72.878906 17.808594 C 72.738281 17.863281 72.621094 17.980469 72.621094 18.152344 C 72.621094 18.296875 72.707031 18.414062 72.824219 18.46875 C 72.679688 18.527344 72.59375 18.671875 72.59375 18.816406 C 72.59375 18.960938 72.679688 19.078125 72.792969 19.132812 C 72.679688 19.191406 72.59375 19.335938 72.59375 19.480469 C 72.59375 19.683594 72.765625 19.855469 72.996094 19.855469 C 73.226562 19.855469 73.398438 19.683594 73.398438 19.480469 C 73.398438 19.335938 73.3125 19.191406 73.195312 19.132812 M 72.21875 11.722656 C 72.335938 11.722656 72.449219 11.636719 72.449219 11.492188 C 72.449219 11.378906 72.335938 11.261719 72.21875 11.261719 C 72.105469 11.261719 71.992188 11.347656 71.992188 11.492188 C 71.992188 11.609375 72.105469 11.722656 72.21875 11.722656 M 72.21875 12.386719 C 72.363281 12.386719 72.449219 12.269531 72.449219 12.15625 C 72.449219 12.011719 72.335938 11.925781 72.21875 11.925781 C 72.078125 11.925781 71.992188 12.039062 71.992188 12.15625 C 71.992188 12.269531 72.078125 12.386719 72.21875 12.386719 M 72.21875 13.078125 C 72.363281 13.078125 72.480469 12.964844 72.480469 12.820312 C 72.480469 12.675781 72.363281 12.558594 72.21875 12.558594 C 72.078125 12.558594 71.960938 12.675781 71.960938 12.820312 C 71.960938 12.964844 72.078125 13.078125 72.21875 13.078125 M 72.21875 13.742188 C 72.363281 13.742188 72.480469 13.625 72.480469 13.480469 C 72.480469 13.335938 72.363281 13.222656 72.21875 13.222656 C 72.078125 13.222656 71.960938 13.335938 71.960938 13.480469 C 71.960938 13.625 72.078125 13.742188 72.21875 13.742188 M 72.21875 14.433594 C 72.363281 14.433594 72.507812 14.316406 72.507812 14.144531 C 72.507812 14 72.390625 13.855469 72.21875 13.855469 C 72.078125 13.855469 71.933594 13.972656 71.933594 14.144531 C 71.933594 14.316406 72.078125 14.433594 72.21875 14.433594 M 72.21875 15.097656 C 72.390625 15.097656 72.507812 14.953125 72.507812 14.808594 C 72.507812 14.636719 72.363281 14.519531 72.21875 14.519531 C 72.046875 14.519531 71.933594 14.664062 71.933594 14.808594 C 71.933594 14.980469 72.046875 15.097656 72.21875 15.097656 M 72.21875 15.789062 C 72.390625 15.789062 72.535156 15.644531 72.535156 15.472656 C 72.535156 15.296875 72.390625 15.15625 72.21875 15.15625 C 72.046875 15.15625 71.90625 15.296875 71.90625 15.472656 C 71.90625 15.644531 72.046875 15.789062 72.21875 15.789062 M 72.21875 16.480469 C 72.390625 16.480469 72.535156 16.335938 72.535156 16.164062 C 72.535156 15.992188 72.390625 15.847656 72.21875 15.847656 C 72.046875 15.847656 71.90625 15.992188 71.90625 16.164062 C 71.90625 16.335938 72.046875 16.480469 72.21875 16.480469 "/>
<path style=" stroke:none;fill-rule:nonzero;fill:rgb(14.117647%,12.156863%,12.941176%);fill-opacity:1;" d="M 71.300781 21.960938 C 71.273438 21.902344 71.214844 21.84375 71.128906 21.816406 C 71.070312 21.757812 70.929688 21.699219 70.785156 21.644531 C 70.585938 21.554688 70.441406 21.5 70.382812 21.441406 C 70.324219 21.382812 70.324219 21.355469 70.324219 21.296875 C 70.324219 21.238281 70.355469 21.179688 70.441406 21.125 C 70.5 21.066406 70.613281 21.035156 70.726562 21.035156 C 70.84375 21.035156 70.929688 21.066406 71.015625 21.125 C 71.070312 21.179688 71.160156 21.238281 71.1875 21.355469 C 71.1875 21.355469 71.1875 21.382812 71.214844 21.382812 C 71.214844 21.382812 71.246094 21.382812 71.246094 21.355469 L 71.273438 21.066406 C 71.214844 21.035156 71.128906 20.980469 71.070312 20.980469 C 70.984375 20.949219 70.898438 20.949219 70.8125 20.949219 C 70.613281 20.949219 70.46875 20.980469 70.355469 21.066406 C 70.238281 21.152344 70.183594 21.238281 70.183594 21.382812 C 70.183594 21.441406 70.210938 21.5 70.238281 21.554688 C 70.296875 21.613281 70.355469 21.671875 70.441406 21.730469 C 70.5 21.757812 70.613281 21.816406 70.785156 21.902344 C 70.957031 21.988281 71.070312 22.046875 71.128906 22.105469 C 71.1875 22.160156 71.214844 22.21875 71.214844 22.277344 C 71.214844 22.335938 71.1875 22.363281 71.160156 22.421875 C 71.128906 22.480469 71.070312 22.507812 71.015625 22.535156 C 70.957031 22.566406 70.871094 22.566406 70.785156 22.566406 C 70.671875 22.566406 70.554688 22.535156 70.441406 22.449219 C 70.355469 22.363281 70.269531 22.304688 70.269531 22.191406 C 70.269531 22.191406 70.269531 22.191406 70.269531 22.160156 C 70.269531 22.132812 70.238281 22.132812 70.238281 22.132812 C 70.210938 22.132812 70.210938 22.132812 70.210938 22.160156 C 70.210938 22.160156 70.183594 22.507812 70.183594 22.507812 C 70.183594 22.535156 70.183594 22.535156 70.210938 22.566406 C 70.238281 22.566406 70.269531 22.59375 70.355469 22.621094 C 70.46875 22.652344 70.613281 22.679688 70.757812 22.679688 C 70.929688 22.679688 71.042969 22.652344 71.128906 22.621094 C 71.214844 22.59375 71.300781 22.507812 71.359375 22.449219 C 71.417969 22.363281 71.445312 22.277344 71.445312 22.191406 C 71.359375 22.074219 71.359375 22.015625 71.300781 21.960938 "/>
<path style=" stroke:none;fill-rule:nonzero;fill:rgb(14.117647%,12.156863%,12.941176%);fill-opacity:1;" d="M 75.894531 22.390625 C 75.894531 22.390625 75.78125 22.566406 75.433594 22.566406 C 75.433594 22.566406 75.433594 22.566406 75.40625 22.566406 C 75.320312 22.566406 75.089844 22.566406 75.0625 22.390625 L 75.0625 21.785156 C 75.089844 21.785156 75.207031 21.757812 75.320312 21.757812 C 75.492188 21.757812 75.636719 21.785156 75.75 21.84375 C 75.75 21.84375 75.835938 21.902344 75.894531 21.988281 C 76.007812 22.105469 76.007812 22.25 75.894531 22.390625 M 75.347656 21.007812 C 75.464844 21.007812 75.550781 21.035156 75.636719 21.066406 C 75.636719 21.066406 75.953125 21.210938 75.75 21.5 C 75.75 21.5 75.636719 21.671875 75.292969 21.671875 C 75.234375 21.671875 75.175781 21.671875 75.089844 21.644531 L 75.089844 21.035156 C 75.121094 21.035156 75.234375 21.007812 75.347656 21.007812 M 75.722656 21.671875 C 75.921875 21.613281 76.066406 21.46875 76.066406 21.324219 C 76.066406 21.125 75.78125 20.949219 75.40625 20.949219 C 75.292969 20.949219 75.121094 20.949219 75.0625 20.949219 C 74.917969 20.949219 74.804688 20.949219 74.6875 20.980469 L 74.574219 20.980469 C 74.546875 20.980469 74.546875 20.980469 74.546875 21.007812 C 74.546875 21.035156 74.546875 21.035156 74.574219 21.035156 L 74.746094 21.066406 C 74.804688 21.066406 74.804688 21.125 74.804688 21.152344 L 74.804688 22.480469 C 74.804688 22.507812 74.773438 22.566406 74.71875 22.566406 L 74.574219 22.59375 C 74.546875 22.59375 74.546875 22.621094 74.546875 22.621094 C 74.546875 22.652344 74.574219 22.652344 74.574219 22.652344 L 75.492188 22.652344 C 75.921875 22.652344 76.238281 22.421875 76.238281 22.160156 C 76.269531 21.929688 76.039062 21.730469 75.722656 21.671875 "/>
<path style=" stroke:none;fill-rule:nonzero;fill:rgb(14.117647%,12.156863%,12.941176%);fill-opacity:1;" d="M 78.964844 22.59375 L 78.824219 22.566406 C 78.765625 22.566406 78.734375 22.507812 78.734375 22.480469 L 78.734375 21.152344 C 78.734375 21.125 78.765625 21.066406 78.824219 21.066406 L 78.964844 21.035156 C 78.996094 21.035156 78.996094 21.007812 78.996094 21.007812 C 78.996094 20.980469 78.964844 20.980469 78.964844 20.980469 L 78.25 20.980469 C 78.21875 20.980469 78.21875 20.980469 78.21875 21.007812 C 78.21875 21.035156 78.21875 21.035156 78.25 21.035156 L 78.390625 21.066406 C 78.449219 21.066406 78.476562 21.125 78.476562 21.152344 L 78.476562 21.785156 L 77.386719 21.785156 L 77.386719 21.152344 C 77.386719 21.125 77.414062 21.066406 77.472656 21.066406 L 77.617188 21.035156 C 77.644531 21.035156 77.644531 21.007812 77.644531 21.007812 C 77.644531 20.980469 77.617188 20.980469 77.617188 20.980469 L 76.898438 20.980469 C 76.871094 20.980469 76.871094 20.980469 76.871094 21.007812 C 76.871094 21.035156 76.871094 21.035156 76.898438 21.035156 L 77.042969 21.066406 C 77.101562 21.066406 77.128906 21.09375 77.128906 21.125 L 77.128906 22.507812 C 77.128906 22.535156 77.101562 22.566406 77.042969 22.566406 L 76.898438 22.59375 C 76.871094 22.59375 76.871094 22.621094 76.871094 22.621094 C 76.871094 22.652344 76.898438 22.652344 76.898438 22.652344 L 77.617188 22.652344 C 77.644531 22.652344 77.644531 22.652344 77.644531 22.621094 C 77.644531 22.59375 77.644531 22.59375 77.617188 22.59375 L 77.472656 22.566406 C 77.414062 22.566406 77.386719 22.535156 77.386719 22.480469 L 77.386719 21.84375 L 78.476562 21.84375 L 78.476562 22.480469 C 78.476562 22.507812 78.449219 22.566406 78.390625 22.566406 L 78.25 22.59375 C 78.21875 22.59375 78.21875 22.621094 78.21875 22.621094 C 78.21875 22.652344 78.25 22.652344 78.25 22.652344 L 78.964844 22.652344 C 78.996094 22.652344 78.996094 22.652344 78.996094 22.621094 C 78.996094 22.59375 78.996094 22.59375 78.964844 22.59375 "/>
<path style=" stroke:none;fill-rule:nonzero;fill:rgb(14.117647%,12.156863%,12.941176%);fill-opacity:1;" d="M 80.113281 21.875 L 80.371094 21.269531 L 80.628906 21.875 Z M 81.378906 22.59375 L 81.261719 22.566406 C 81.203125 22.566406 81.175781 22.535156 81.148438 22.480469 L 80.457031 20.949219 L 80.402344 20.949219 L 79.710938 22.480469 C 79.683594 22.507812 79.65625 22.535156 79.597656 22.566406 L 79.484375 22.59375 C 79.453125 22.59375 79.453125 22.621094 79.453125 22.621094 C 79.453125 22.652344 79.484375 22.652344 79.484375 22.652344 L 80 22.652344 C 80.027344 22.652344 80.027344 22.652344 80.027344 22.621094 C 80.027344 22.59375 80.027344 22.59375 80 22.59375 L 79.882812 22.566406 C 79.855469 22.566406 79.828125 22.535156 79.828125 22.535156 C 79.828125 22.507812 79.828125 22.507812 79.828125 22.480469 L 80.054688 21.988281 L 80.6875 21.988281 L 80.917969 22.449219 C 80.945312 22.507812 80.890625 22.566406 80.859375 22.566406 L 80.71875 22.59375 C 80.6875 22.59375 80.6875 22.621094 80.6875 22.621094 C 80.6875 22.652344 80.71875 22.652344 80.71875 22.652344 L 81.378906 22.652344 C 81.40625 22.652344 81.40625 22.652344 81.40625 22.621094 C 81.40625 22.59375 81.40625 22.59375 81.378906 22.59375 "/>
<path style=" stroke:none;fill-rule:nonzero;fill:rgb(14.117647%,12.156863%,12.941176%);fill-opacity:1;" d="M 73.742188 21.785156 C 73.742188 21.902344 73.714844 22.015625 73.683594 22.132812 C 73.65625 22.21875 73.597656 22.304688 73.539062 22.363281 C 73.484375 22.421875 73.398438 22.480469 73.28125 22.507812 C 73.195312 22.535156 73.082031 22.566406 72.964844 22.566406 C 72.851562 22.566406 72.765625 22.535156 72.652344 22.507812 C 72.566406 22.480469 72.480469 22.421875 72.390625 22.363281 C 72.335938 22.304688 72.277344 22.21875 72.25 22.132812 C 72.21875 22.015625 72.191406 21.902344 72.191406 21.785156 C 72.191406 21.671875 72.21875 21.554688 72.25 21.441406 C 72.277344 21.355469 72.335938 21.269531 72.390625 21.210938 C 72.449219 21.152344 72.535156 21.09375 72.652344 21.066406 C 72.738281 21.035156 72.851562 21.007812 72.964844 21.007812 C 73.082031 21.007812 73.167969 21.035156 73.28125 21.066406 C 73.367188 21.09375 73.453125 21.152344 73.539062 21.210938 C 73.597656 21.269531 73.65625 21.355469 73.683594 21.441406 C 73.714844 21.554688 73.742188 21.671875 73.742188 21.785156 Z M 74 21.785156 C 74 21.671875 73.972656 21.585938 73.941406 21.5 C 73.914062 21.410156 73.886719 21.355469 73.828125 21.296875 C 73.742188 21.210938 73.65625 21.125 73.597656 21.09375 C 73.511719 21.035156 73.425781 21.007812 73.339844 20.980469 C 73.253906 20.949219 73.140625 20.949219 73.023438 20.949219 C 73.023438 20.949219 72.996094 20.949219 72.996094 20.949219 C 72.996094 20.949219 72.964844 20.949219 72.964844 20.949219 C 72.851562 20.949219 72.765625 20.949219 72.652344 20.980469 C 72.566406 21.007812 72.449219 21.035156 72.390625 21.09375 C 72.304688 21.152344 72.21875 21.210938 72.164062 21.296875 C 72.105469 21.355469 72.078125 21.441406 72.046875 21.5 C 72.019531 21.585938 71.992188 21.699219 71.992188 21.785156 C 71.992188 21.785156 71.992188 21.785156 71.992188 21.816406 C 71.992188 21.816406 71.992188 21.816406 71.992188 21.84375 C 71.992188 21.960938 72.019531 22.046875 72.046875 22.132812 C 72.078125 22.21875 72.105469 22.277344 72.164062 22.335938 C 72.25 22.421875 72.335938 22.507812 72.390625 22.535156 C 72.480469 22.59375 72.566406 22.621094 72.652344 22.652344 C 72.738281 22.679688 72.851562 22.679688 72.964844 22.679688 C 72.964844 22.679688 72.996094 22.679688 72.996094 22.679688 C 72.996094 22.679688 73.023438 22.679688 73.023438 22.679688 C 73.140625 22.679688 73.226562 22.679688 73.339844 22.652344 C 73.425781 22.621094 73.539062 22.59375 73.597656 22.535156 C 73.683594 22.480469 73.769531 22.421875 73.828125 22.335938 C 73.886719 22.277344 73.914062 22.191406 73.941406 22.132812 C 73.972656 22.046875 74 21.929688 74 21.84375 C 74 21.816406 74 21.785156 74 21.785156 "/>
</g>
</svg>
