<?xml version="1.0" encoding="UTF-8"?>
<svg xmlns="http://www.w3.org/2000/svg" xmlns:xlink="http://www.w3.org/1999/xlink" width="150px" height="37px" viewBox="0 0 152 37" version="1.1">
<g id="surface1">
<path style=" stroke:none;fill-rule:nonzero;fill:rgb(10.196078%,24.705882%,47.058824%);fill-opacity:1;" d="M 53.257812 8.925781 L 50.605469 14.96875 L 47.984375 8.925781 L 46.121094 8.925781 L 49.648438 16.976562 L 50.265625 16.976562 L 53.792969 8.925781 Z M 56.332031 8.925781 L 55.710938 8.925781 L 52.214844 16.976562 L 52.75 16.976562 L 53.707031 14.800781 L 57.089844 14.800781 L 58.023438 16.976562 L 59.882812 16.976562 Z M 53.875 14.375 L 55.398438 10.902344 L 56.894531 14.375 Z M 28.582031 9.660156 C 28.015625 9.179688 27.285156 8.925781 26.4375 8.925781 L 22.773438 8.925781 L 22.773438 16.976562 L 24.519531 16.976562 L 24.519531 13.953125 L 26.410156 13.953125 C 27.285156 13.953125 27.988281 13.699219 28.554688 13.246094 C 29.144531 12.765625 29.425781 12.171875 29.425781 11.46875 C 29.457031 10.734375 29.171875 10.140625 28.582031 9.660156 M 26.097656 13.527344 L 24.546875 13.527344 L 24.546875 9.347656 L 26.097656 9.347656 C 27.03125 9.347656 27.652344 10.167969 27.652344 11.4375 C 27.652344 12.710938 27.03125 13.527344 26.097656 13.527344 M 45.472656 16.097656 L 44.738281 14.574219 C 44.484375 14.007812 43.949219 13.640625 43.074219 13.5 C 43.808594 13.417969 44.402344 13.160156 44.851562 12.765625 C 45.304688 12.34375 45.53125 11.835938 45.53125 11.269531 C 45.53125 10.589844 45.246094 10.054688 44.65625 9.601562 C 44.089844 9.179688 43.359375 8.953125 42.511719 8.953125 L 39.101562 8.953125 L 39.101562 17.003906 L 40.847656 17.003906 L 40.847656 13.527344 L 42.089844 13.527344 C 42.34375 13.613281 42.511719 13.785156 42.625 14.007812 L 43.695312 16.324219 C 43.835938 16.636719 44.035156 16.863281 44.230469 17.003906 L 46.121094 17.003906 C 45.894531 16.804688 45.671875 16.523438 45.472656 16.097656 M 42.257812 13.105469 L 40.847656 13.105469 L 40.847656 9.347656 L 42.257812 9.347656 C 43.132812 9.347656 43.726562 10.082031 43.726562 11.214844 C 43.753906 12.371094 43.160156 13.105469 42.257812 13.105469 M 37.125 14.207031 C 37.125 15.507812 36.054688 16.578125 34.757812 16.578125 C 33.460938 16.578125 32.386719 15.507812 32.386719 14.207031 L 32.386719 8.925781 L 30.640625 8.925781 L 30.640625 13.785156 C 30.640625 14.773438 30.976562 15.5625 31.683594 16.183594 C 32.359375 16.804688 33.261719 17.085938 34.332031 17.085938 C 35.347656 17.085938 36.140625 16.804688 36.703125 16.269531 C 37.265625 15.703125 37.578125 14.96875 37.578125 14.039062 L 37.578125 8.953125 L 37.152344 8.953125 L 37.152344 14.207031 Z M 37.125 14.207031 "/>
<path style=" stroke:none;fill-rule:nonzero;fill:rgb(16.862745%,14.509804%,13.72549%);fill-opacity:1;" d="M 14.253906 20.023438 L 10.730469 28.074219 L 10.277344 28.074219 L 8.21875 23.328125 L 6.160156 28.074219 L 5.710938 28.074219 L 2.214844 20.023438 L 3.257812 20.023438 L 6.304688 27 L 8.078125 22.960938 L 6.78125 20.023438 L 7.855469 20.023438 L 10.898438 27.03125 L 13.945312 20.023438 Z M 14.253906 20.023438 "/>
<path style=" stroke:none;fill-rule:nonzero;fill:rgb(16.862745%,14.509804%,13.72549%);fill-opacity:1;" d="M 15.355469 20.023438 L 16.371094 20.023438 L 16.371094 28.046875 L 15.355469 28.046875 Z M 15.355469 20.023438 "/>
<path style=" stroke:none;fill-rule:nonzero;fill:rgb(16.862745%,14.509804%,13.72549%);fill-opacity:1;" d="M 24.941406 20.023438 L 24.941406 28.074219 L 24.546875 28.074219 L 18.597656 20.871094 L 18.597656 28.074219 L 18.34375 28.074219 L 18.34375 20.023438 L 19.191406 20.023438 L 24.660156 26.691406 L 24.660156 20.023438 Z M 24.941406 20.023438 "/>
<path style=" stroke:none;fill-rule:nonzero;fill:rgb(16.862745%,14.509804%,13.72549%);fill-opacity:1;" d="M 34.164062 24.035156 C 34.164062 26.324219 32.332031 28.046875 29.878906 28.046875 L 26.890625 28.046875 L 26.890625 20.023438 L 29.878906 20.023438 C 32.332031 20.023438 34.164062 21.777344 34.164062 24.035156 M 33.09375 24.035156 C 33.09375 21.75 31.738281 20.25 29.738281 20.25 L 27.933594 20.25 L 27.933594 27.820312 L 29.738281 27.820312 C 31.738281 27.820312 33.09375 26.324219 33.09375 24.035156 "/>
<path style=" stroke:none;fill-rule:nonzero;fill:rgb(16.862745%,14.509804%,13.72549%);fill-opacity:1;" d="M 41.242188 27.820312 L 41.242188 28.074219 L 35.601562 28.074219 L 35.601562 20.023438 L 41.128906 20.023438 L 41.128906 20.28125 L 36.617188 20.28125 L 36.617188 23.867188 L 40.199219 23.867188 L 40.199219 24.121094 L 36.617188 24.121094 L 36.617188 27.820312 Z M 41.242188 27.820312 "/>
<path style=" stroke:none;fill-rule:nonzero;fill:rgb(16.862745%,14.509804%,13.72549%);fill-opacity:1;" d="M 49.222656 28.074219 L 48.066406 28.074219 C 47.8125 27.90625 47.617188 27.652344 47.476562 27.398438 L 46.261719 25.277344 C 46.09375 25.023438 45.867188 24.769531 45.558594 24.628906 L 43.613281 24.628906 L 43.613281 28.074219 L 42.597656 28.074219 L 42.597656 20.023438 L 45.726562 20.023438 C 47.390625 20.023438 48.632812 21.015625 48.632812 22.3125 C 48.632812 23.5 47.644531 24.402344 46.234375 24.574219 C 46.769531 24.742188 47.222656 25.023438 47.445312 25.417969 L 48.492188 27.171875 C 48.6875 27.539062 48.96875 27.878906 49.222656 28.074219 M 43.582031 24.402344 L 45.53125 24.402344 C 46.742188 24.402344 47.558594 23.582031 47.558594 22.339844 C 47.558594 21.097656 46.742188 20.28125 45.53125 20.28125 L 43.582031 20.28125 Z M 43.582031 24.402344 "/>
<path style=" stroke:none;fill-rule:nonzero;fill:rgb(16.862745%,14.509804%,13.72549%);fill-opacity:1;" d="M 58.21875 20.023438 L 58.21875 28.074219 L 57.203125 28.074219 L 57.203125 20.535156 L 53.933594 25.984375 L 53.734375 25.984375 L 50.464844 20.535156 L 50.464844 28.074219 L 50.183594 28.074219 L 50.183594 20.023438 L 51.28125 20.023438 L 54.242188 24.882812 L 57.175781 20.023438 Z M 58.21875 20.023438 "/>
<path style=" stroke:none;fill-rule:nonzero;fill:rgb(16.862745%,14.509804%,13.72549%);fill-opacity:1;" d="M 65.863281 27.820312 L 65.863281 28.074219 L 60.195312 28.074219 L 60.195312 20.023438 L 65.75 20.023438 L 65.75 20.28125 L 61.238281 20.28125 L 61.238281 23.867188 L 64.820312 23.867188 L 64.820312 24.121094 L 61.238281 24.121094 L 61.238281 27.820312 Z M 65.863281 27.820312 "/>
<path style=" stroke:none;fill-rule:nonzero;fill:rgb(16.862745%,14.509804%,13.72549%);fill-opacity:1;" d="M 73.816406 28.074219 L 72.660156 28.074219 C 72.40625 27.90625 72.207031 27.652344 72.066406 27.398438 L 70.851562 25.277344 C 70.683594 25.023438 70.457031 24.769531 70.148438 24.628906 L 68.203125 24.628906 L 68.203125 28.074219 L 67.1875 28.074219 L 67.1875 20.023438 L 70.347656 20.023438 C 72.007812 20.023438 73.25 21.015625 73.25 22.3125 C 73.25 23.5 72.261719 24.402344 70.851562 24.574219 C 71.390625 24.742188 71.839844 25.023438 72.066406 25.417969 L 73.109375 27.171875 C 73.277344 27.539062 73.589844 27.878906 73.816406 28.074219 M 68.203125 24.402344 L 70.148438 24.402344 C 71.359375 24.402344 72.179688 23.582031 72.179688 22.339844 C 72.179688 21.097656 71.359375 20.28125 70.148438 20.28125 L 68.203125 20.28125 Z M 68.203125 24.402344 "/>
<path style=" stroke:none;fill-rule:nonzero;fill:rgb(16.862745%,14.509804%,13.72549%);fill-opacity:1;" d="M 80.441406 27.820312 L 80.441406 28.074219 L 74.800781 28.074219 L 74.800781 20.023438 L 80.328125 20.023438 L 80.328125 20.28125 L 75.816406 20.28125 L 75.816406 23.867188 L 79.398438 23.867188 L 79.398438 24.121094 L 75.816406 24.121094 L 75.816406 27.820312 Z M 80.441406 27.820312 "/>
<path style="fill:none;stroke-width:1;stroke-linecap:butt;stroke-linejoin:miter;stroke:rgb(0%,0%,0%);stroke-opacity:1;stroke-miterlimit:10;" d="M 302.400319 12.29508 L 302.400319 118.70492 " transform="matrix(0.282004,0,0,0.282443,0.0423006,0)"/>
<path style=" stroke:none;fill-rule:nonzero;fill:rgb(10.196078%,24.705882%,47.058824%);fill-opacity:1;" d="M 95.867188 22.371094 L 95.867188 22.59375 L 90.394531 22.59375 L 90.394531 14.40625 L 91.441406 14.40625 L 91.441406 22.371094 Z M 95.867188 22.371094 "/>
<path style=" stroke:none;fill-rule:nonzero;fill:rgb(10.196078%,24.705882%,47.058824%);fill-opacity:1;" d="M 95.953125 22.679688 L 90.285156 22.679688 L 90.285156 14.320312 L 91.523438 14.320312 L 91.523438 22.285156 L 95.953125 22.285156 Z M 90.480469 22.511719 L 95.753906 22.511719 L 95.753906 22.453125 L 91.328125 22.453125 L 91.328125 14.488281 L 90.480469 14.488281 Z M 90.480469 22.511719 "/>
<path style=" stroke:none;fill-rule:nonzero;fill:rgb(10.196078%,24.705882%,47.058824%);fill-opacity:1;" d="M 101.902344 20.167969 L 97.8125 20.167969 L 96.742188 22.59375 L 96.402344 22.59375 L 99.984375 14.40625 L 100.4375 14.40625 L 104.015625 22.59375 L 102.917969 22.59375 Z M 101.789062 19.941406 L 99.871094 15.476562 L 97.898438 19.941406 Z M 101.789062 19.941406 "/>
<path style=" stroke:none;fill-rule:nonzero;fill:rgb(10.196078%,24.705882%,47.058824%);fill-opacity:1;" d="M 104.1875 22.679688 L 102.890625 22.679688 L 101.84375 20.25 L 97.898438 20.25 L 96.824219 22.679688 L 96.289062 22.679688 L 96.347656 22.539062 L 99.957031 14.292969 L 100.546875 14.292969 Z M 103 22.511719 L 103.875 22.511719 L 100.378906 14.515625 L 100.039062 14.515625 L 96.542969 22.511719 L 96.65625 22.511719 L 97.726562 20.082031 L 101.929688 20.082031 Z M 101.929688 20.023438 L 97.757812 20.023438 L 99.84375 15.222656 Z M 98.066406 19.855469 L 101.675781 19.855469 L 99.871094 15.730469 Z M 98.066406 19.855469 "/>
<path style=" stroke:none;fill-rule:nonzero;fill:rgb(10.196078%,24.705882%,47.058824%);fill-opacity:1;" d="M 107.515625 18.21875 L 106.300781 19.289062 L 106.300781 22.59375 L 105.285156 22.59375 L 105.285156 14.40625 L 106.300781 14.40625 L 106.300781 18.921875 L 111.347656 14.40625 L 111.742188 14.40625 L 108.246094 17.566406 L 111.996094 22.59375 L 110.785156 22.59375 Z M 107.515625 18.21875 "/>
<path style=" stroke:none;fill-rule:nonzero;fill:rgb(10.196078%,24.705882%,47.058824%);fill-opacity:1;" d="M 112.195312 22.679688 L 110.730469 22.679688 L 107.515625 18.359375 L 106.414062 19.347656 L 106.414062 22.707031 L 105.171875 22.707031 L 105.171875 14.320312 L 106.414062 14.320312 L 106.414062 18.726562 L 111.292969 14.320312 L 111.996094 14.320312 L 108.386719 17.597656 Z M 110.839844 22.511719 L 111.828125 22.511719 L 108.132812 17.566406 L 111.519531 14.515625 L 111.40625 14.515625 L 106.246094 19.179688 L 106.246094 14.488281 L 105.398438 14.488281 L 105.398438 22.484375 L 106.246094 22.484375 L 106.246094 19.261719 L 107.570312 18.078125 Z M 110.839844 22.511719 "/>
<path style=" stroke:none;fill-rule:nonzero;fill:rgb(10.196078%,24.705882%,47.058824%);fill-opacity:1;" d="M 118.765625 22.371094 L 118.765625 22.59375 L 113.011719 22.59375 L 113.011719 14.40625 L 118.652344 14.40625 L 118.652344 14.628906 L 114.054688 14.628906 L 114.054688 18.332031 L 117.722656 18.332031 L 117.722656 18.554688 L 114.054688 18.554688 L 114.054688 22.371094 Z M 118.765625 22.371094 "/>
<path style=" stroke:none;fill-rule:nonzero;fill:rgb(10.196078%,24.705882%,47.058824%);fill-opacity:1;" d="M 118.878906 22.679688 L 112.929688 22.679688 L 112.929688 14.320312 L 118.765625 14.320312 L 118.765625 14.742188 L 114.167969 14.742188 L 114.167969 18.246094 L 117.835938 18.246094 L 117.835938 18.640625 L 114.167969 18.640625 L 114.167969 22.257812 L 118.878906 22.257812 Z M 113.097656 22.511719 L 118.652344 22.511719 L 118.652344 22.453125 L 113.972656 22.453125 L 113.972656 18.472656 L 117.636719 18.472656 L 117.636719 18.414062 L 113.972656 18.414062 L 113.972656 14.546875 L 118.570312 14.546875 L 118.570312 14.488281 L 113.125 14.488281 L 113.125 22.511719 Z M 113.097656 22.511719 "/>
<path style=" stroke:none;fill-rule:nonzero;fill:rgb(10.196078%,24.705882%,47.058824%);fill-opacity:1;" d="M 126.972656 14.40625 L 123.390625 22.59375 L 122.941406 22.59375 L 119.359375 14.40625 L 120.429688 14.40625 L 123.558594 21.523438 L 126.632812 14.40625 Z M 126.972656 14.40625 "/>
<path style=" stroke:none;fill-rule:nonzero;fill:rgb(10.196078%,24.705882%,47.058824%);fill-opacity:1;" d="M 123.445312 22.679688 L 122.855469 22.679688 L 119.1875 14.292969 L 120.484375 14.292969 L 123.558594 21.296875 L 126.578125 14.320312 L 127.113281 14.320312 L 127.058594 14.460938 Z M 122.996094 22.511719 L 123.335938 22.511719 L 126.832031 14.515625 L 126.71875 14.515625 L 123.558594 21.777344 L 120.402344 14.515625 L 119.527344 14.515625 Z M 122.996094 22.511719 "/>
<path style=" stroke:none;fill-rule:nonzero;fill:rgb(10.196078%,24.705882%,47.058824%);fill-opacity:1;" d="M 128.101562 14.40625 L 129.144531 14.40625 L 129.144531 22.59375 L 128.101562 22.59375 Z M 128.101562 14.40625 "/>
<path style=" stroke:none;fill-rule:nonzero;fill:rgb(10.196078%,24.705882%,47.058824%);fill-opacity:1;" d="M 129.226562 22.679688 L 127.988281 22.679688 L 127.988281 14.320312 L 129.226562 14.320312 Z M 128.183594 22.511719 L 129.03125 22.511719 L 129.03125 14.488281 L 128.183594 14.488281 Z M 128.183594 22.511719 "/>
<path style=" stroke:none;fill-rule:nonzero;fill:rgb(10.196078%,24.705882%,47.058824%);fill-opacity:1;" d="M 130.636719 20.476562 L 130.890625 20.476562 C 130.890625 21.605469 132.046875 22.453125 133.488281 22.453125 C 134.8125 22.453125 135.769531 21.804688 135.769531 20.902344 C 135.769531 19.914062 134.671875 19.460938 133.429688 18.980469 C 132.246094 18.5 130.835938 17.933594 130.835938 16.523438 C 130.835938 15.222656 132.046875 14.320312 133.65625 14.320312 C 135.148438 14.320312 136.277344 15.222656 136.277344 16.4375 L 136.023438 16.4375 C 136.023438 15.363281 135.066406 14.574219 133.769531 14.574219 C 132.554688 14.574219 131.625 15.25 131.625 16.15625 C 131.625 17.171875 132.78125 17.652344 133.9375 18.105469 C 135.292969 18.613281 136.589844 19.121094 136.589844 20.503906 C 136.589844 21.859375 135.347656 22.765625 133.628906 22.765625 C 131.964844 22.707031 130.636719 21.75 130.636719 20.476562 "/>
<path style=" stroke:none;fill-rule:nonzero;fill:rgb(10.196078%,24.705882%,47.058824%);fill-opacity:1;" d="M 133.628906 22.820312 C 131.90625 22.820312 130.554688 21.804688 130.554688 20.476562 L 130.554688 20.390625 L 131.003906 20.390625 L 131.003906 20.476562 C 131.003906 21.550781 132.105469 22.371094 133.515625 22.371094 C 134.785156 22.371094 135.6875 21.75 135.6875 20.902344 C 135.6875 20.023438 134.753906 19.574219 133.402344 19.066406 C 132.21875 18.585938 130.75 17.992188 130.75 16.496094 C 130.75 15.167969 131.992188 14.179688 133.683594 14.179688 C 135.234375 14.179688 136.417969 15.140625 136.417969 16.382812 L 136.417969 16.464844 L 135.96875 16.464844 L 135.96875 16.382812 C 135.96875 15.363281 135.039062 14.628906 133.796875 14.628906 C 132.640625 14.628906 131.765625 15.25 131.765625 16.097656 C 131.765625 17.058594 132.980469 17.539062 134.023438 17.964844 C 135.347656 18.472656 136.730469 18.980469 136.730469 20.449219 C 136.671875 21.859375 135.460938 22.820312 133.628906 22.820312 M 130.722656 20.5625 C 130.777344 21.71875 132.046875 22.625 133.628906 22.625 C 135.347656 22.625 136.503906 21.75 136.503906 20.476562 C 136.503906 19.148438 135.261719 18.667969 133.9375 18.160156 C 132.808594 17.710938 131.539062 17.230469 131.539062 16.128906 C 131.539062 15.167969 132.5 14.460938 133.769531 14.460938 C 135.066406 14.460938 136.050781 15.25 136.109375 16.324219 L 136.164062 16.324219 C 136.109375 15.222656 135.039062 14.40625 133.628906 14.40625 C 132.046875 14.40625 130.890625 15.28125 130.890625 16.523438 C 130.890625 17.878906 132.246094 18.414062 133.429688 18.894531 C 134.613281 19.375 135.828125 19.855469 135.828125 20.929688 C 135.828125 21.890625 134.839844 22.566406 133.457031 22.566406 C 131.992188 22.566406 130.835938 21.691406 130.777344 20.589844 L 130.722656 20.589844 Z M 130.722656 20.5625 "/>
<path style=" stroke:none;fill-rule:nonzero;fill:rgb(10.196078%,24.705882%,47.058824%);fill-opacity:1;" d="M 143.414062 14.628906 L 140.648438 14.628906 L 140.648438 22.59375 L 139.632812 22.59375 L 139.632812 14.628906 L 136.84375 14.628906 L 136.84375 14.40625 L 143.414062 14.40625 Z M 143.414062 14.628906 "/>
<path style=" stroke:none;fill-rule:nonzero;fill:rgb(10.196078%,24.705882%,47.058824%);fill-opacity:1;" d="M 140.761719 22.679688 L 139.519531 22.679688 L 139.519531 14.742188 L 136.757812 14.742188 L 136.757812 14.320312 L 143.496094 14.320312 L 143.496094 14.742188 L 140.761719 14.742188 Z M 139.71875 22.511719 L 140.566406 22.511719 L 140.566406 14.546875 L 143.300781 14.546875 L 143.300781 14.488281 L 136.925781 14.488281 L 136.925781 14.546875 L 139.691406 14.546875 L 139.691406 22.511719 Z M 139.71875 22.511719 "/>
<path style=" stroke:none;fill-rule:nonzero;fill:rgb(10.196078%,24.705882%,47.058824%);fill-opacity:1;" d="M 148.039062 20.167969 L 143.949219 20.167969 L 142.878906 22.59375 L 142.539062 22.59375 L 146.121094 14.40625 L 146.570312 14.40625 L 150.152344 22.59375 L 149.054688 22.59375 Z M 147.953125 19.941406 L 146.007812 15.476562 L 144.0625 19.941406 Z M 147.953125 19.941406 "/>
<path style=" stroke:none;fill-rule:nonzero;fill:rgb(10.196078%,24.705882%,47.058824%);fill-opacity:1;" d="M 150.320312 22.679688 L 149.023438 22.679688 L 147.980469 20.25 L 144.035156 20.25 L 142.960938 22.679688 L 142.425781 22.679688 L 142.480469 22.539062 L 146.09375 14.292969 L 146.683594 14.292969 Z M 149.164062 22.511719 L 150.039062 22.511719 L 146.542969 14.515625 L 146.203125 14.515625 L 142.707031 22.511719 L 142.820312 22.511719 L 143.890625 20.082031 L 148.09375 20.082031 Z M 148.09375 20.023438 L 143.921875 20.023438 L 146.007812 15.222656 Z M 144.203125 19.855469 L 147.8125 19.855469 L 146.007812 15.730469 Z M 144.203125 19.855469 "/>
</g>
</svg>
